<svg width="40" height="40" fill="none" xmlns="http://www.w3.org/2000/svg"><g clip-path="url(#a)"><path d="M20 1.328c10.312 0 18.656 8.344 18.656 18.64 0 10.298-8.344 18.657-18.656 18.657-10.313 0-18.656-8.344-18.656-18.64C1.344 9.687 9.687 1.327 20 1.327Z" fill="#E74D89"/><path d="M20 39.953C8.969 39.953 0 31 0 19.984 0 8.954 8.969 0 20 0s20 8.953 20 19.969c0 11.015-8.969 19.984-20 19.984Zm16.86-17.25c-.579-.187-5.282-1.578-10.641-.734 2.234 6.125 3.14 11.125 3.312 12.156 3.844-2.578 6.578-6.672 7.328-11.422Zm-10.188 13c-.25-1.5-1.25-6.719-3.64-12.937a.29.29 0 0 1-.11.03c-9.64 3.36-13.094 10.032-13.406 10.657A17.016 17.016 0 0 0 20 37.047a16.69 16.69 0 0 0 6.672-1.344Zm-19.36-4.297c.391-.656 5.079-8.406 13.891-11.265.219-.078.453-.141.672-.203a44.474 44.474 0 0 0-1.39-2.891c-8.532 2.547-16.813 2.437-17.563 2.422 0 .172-.016.343-.016.515a17.073 17.073 0 0 0 4.406 11.422ZM3.282 16.5c.765.016 7.796.047 15.796-2.078-2.828-5.031-5.89-9.25-6.328-9.86C7.953 6.813 4.39 11.22 3.281 16.5ZM16 3.406c.469.625 3.578 4.844 6.375 9.985 6.078-2.282 8.64-5.72 8.953-6.157A17.03 17.03 0 0 0 20 2.938c-1.375 0-2.719.171-4 .468Zm17.219 5.797c-.36.485-3.219 4.156-9.532 6.735.391.812.782 1.64 1.141 2.468.125.297.25.594.375.875 5.688-.718 11.328.438 11.89.547A16.993 16.993 0 0 0 33.22 9.203Z" fill="#B2215A"/></g><defs><clipPath id="a"><path fill="#fff" d="M0 0h40v40H0z"/></clipPath></defs></svg>