<svg width="40" height="40" fill="none" xmlns="http://www.w3.org/2000/svg"><circle cx="20" cy="20" r="20" fill="#FDFDFE"/><path d="M8.846 24.013c-.463.081-.934.106-1.421.171l-1.486-4.367v4.555c-.463.048-.885.114-1.324.179v-8.344H5.85l1.69 4.734v-4.734h1.307v7.806Zm2.558-4.75c.504 0 1.275-.025 1.738-.025v1.304c-.577 0-1.25 0-1.738.024v1.94c.763-.05 1.527-.114 2.298-.139v1.255l-3.597.285v-7.7h3.597v1.304h-2.298v1.752Zm7.13-1.752h-1.348v5.997c-.439 0-.877 0-1.3.016v-6.013H14.54v-1.304h3.995v1.304Zm2.111 1.662h1.779v1.304h-1.779v2.957H19.37v-7.227H23v1.304h-2.355v1.662Zm4.467 3.12c.739.017 1.486.074 2.209.115v1.287a82.21 82.21 0 0 0-3.509-.17v-7.318h1.3v6.087Zm3.305 1.492c.414.024.852.049 1.275.098v-7.676h-1.275v7.578Zm6.967-7.578-1.648 3.968 1.648 4.376c-.487-.065-.974-.155-1.462-.236l-.933-2.412-.95 2.216c-.471-.082-.926-.106-1.397-.171l1.673-3.822-1.51-3.92H32.2l.853 2.193.91-2.192h1.42Z" fill="#D81F26"/></svg>