<svg width="57" height="56" fill="none" xmlns="http://www.w3.org/2000/svg"><circle cx="28.543" cy="28" r="28" fill="#fff"/><path d="m23.362 42.586.532-3.37-1.186-.028h-5.662l3.935-24.87a.32.32 0 0 1 .32-.272h9.547c3.169 0 5.356.658 6.498 1.955.536.609.877 1.245 1.042 1.945.172.735.176 1.612.007 2.683l-.013.078v.686l.536.302c.409.206.776.486 1.084.824.458.52.754 1.182.88 1.966.128.807.086 1.767-.126 2.853-.244 1.25-.64 2.339-1.173 3.23a6.652 6.652 0 0 1-1.857 2.029c-.709.5-1.55.881-2.502 1.125-.922.24-1.973.36-3.127.36h-.743c-.53 0-1.047.19-1.452.533a2.24 2.24 0 0 0-.757 1.347l-.056.303-.94 5.94-.043.219c-.012.069-.03.103-.06.127a.159.159 0 0 1-.097.035h-4.587Z" fill="#253B80"/><path d="M39.428 20.77c-.028.182-.06.368-.097.559-1.259 6.45-5.564 8.678-11.063 8.678h-2.8c-.672 0-1.238.488-1.343 1.15l-1.434 9.076-.406 2.572a.716.716 0 0 0 .707.827h4.966c.588 0 1.088-.426 1.18-1.005l.049-.252.935-5.923.06-.325a1.194 1.194 0 0 1 1.18-1.008h.743c4.81 0 8.577-1.95 9.678-7.593.46-2.357.221-4.325-.995-5.71a4.75 4.75 0 0 0-1.36-1.046Z" fill="#179BD7"/><path d="M38.136 20.325a10.043 10.043 0 0 0-1.23-.271 15.752 15.752 0 0 0-2.483-.18h-7.522c-.286 0-.563.101-.78.286-.218.184-.362.44-.406.72l-1.6 10.056-.046.294c.05-.32.214-.612.462-.823.248-.21.563-.326.89-.326h2.815c5.53 0 9.86-2.228 11.126-8.674.038-.191.07-.377.098-.559a6.778 6.778 0 0 0-1.04-.435 9.204 9.204 0 0 0-.284-.088Z" fill="#222D65"/><path d="M25.79 20.847a1.192 1.192 0 0 1 1.18-1.01h7.487c.887 0 1.715.058 2.47.18.512.08 1.016.2 1.509.36.372.123.717.269 1.036.437.374-2.392-.003-4.02-1.296-5.495C36.752 13.695 34.18 13 30.89 13h-9.552c-.672 0-1.245.49-1.35 1.155l-3.978 25.24a.822.822 0 0 0 .81.95h5.897l1.48-9.402 1.593-10.096Z" fill="#253B80"/></svg>