<svg width="513" height="450" fill="none" xmlns="http://www.w3.org/2000/svg"><path fill-rule="evenodd" clip-rule="evenodd" d="M177.311 98.195c-51.466 43.185-58.179 119.915-14.994 171.381 43.185 51.466 119.915 58.178 171.381 14.994 51.465-43.185 58.178-119.915 14.993-171.381-43.185-51.465-119.914-58.178-171.38-14.993Zm-3.214-3.83c-53.581 44.96-60.57 124.844-15.61 178.425 44.96 53.581 124.843 60.57 178.424 15.61 53.582-44.96 60.57-124.843 15.611-178.425-44.96-53.58-124.844-60.57-178.425-15.61Z" fill="url(#a)" fill-opacity=".3"/><path fill-rule="evenodd" clip-rule="evenodd" d="M218.663 147.476c-24.249 20.347-27.412 56.499-7.065 80.748 20.347 24.249 56.499 27.412 80.748 7.065 24.249-20.347 27.412-56.5 7.065-80.749-20.347-24.248-56.5-27.411-80.748-7.064Zm-3.214-3.83c-26.365 22.122-29.803 61.428-7.681 87.792 22.122 26.364 61.428 29.803 87.792 7.681 26.364-22.122 29.803-61.428 7.681-87.792-22.122-26.365-61.428-29.804-87.792-7.681Z" fill="url(#b)" fill-opacity=".3"/><path fill-rule="evenodd" clip-rule="evenodd" d="M255.504 371.883c99.688 0 180.5-80.813 180.5-180.5 0-99.688-80.812-180.5-180.5-180.5-99.687 0-180.5 80.812-180.5 180.5 0 99.687 80.813 180.5 180.5 180.5Zm0 10c105.21 0 190.5-85.29 190.5-190.5S360.714.883 255.504.883s-190.5 85.29-190.5 190.5 85.29 190.5 190.5 190.5Z" fill="url(#c)" fill-opacity=".3"/><g filter="url(#d)"><rect y="79" width="191" height="158" rx="20" fill="url(#e)"/></g><rect x="79" y="98.883" width="34" height="34" rx="10" fill="#00030C"/><path d="M29.027 164.795c0 .576-.144 1.109-.432 1.6-.288.48-.714.869-1.28 1.168-.565.288-1.253.432-2.064.432-.8 0-1.514-.134-2.144-.4a3.752 3.752 0 0 1-1.52-1.184c-.373-.512-.586-1.11-.64-1.792h2.4c.054.458.235.842.544 1.152.32.298.742.448 1.264.448.47 0 .827-.123 1.072-.368.256-.256.384-.582.384-.976 0-.352-.1-.64-.304-.864a2.157 2.157 0 0 0-.768-.56c-.309-.139-.736-.299-1.28-.48a13.536 13.536 0 0 1-1.728-.688 3.348 3.348 0 0 1-1.152-1.008c-.309-.438-.464-1.008-.464-1.712 0-.971.347-1.734 1.04-2.288.704-.566 1.632-.848 2.784-.848 1.195 0 2.144.288 2.848.864.715.576 1.12 1.344 1.216 2.304h-2.432a1.655 1.655 0 0 0-.512-.992c-.277-.267-.656-.4-1.136-.4-.416 0-.752.112-1.008.336-.256.213-.384.528-.384.944 0 .33.096.608.288.832.203.213.454.389.752.528.31.138.726.293 1.248.464.726.256 1.312.496 1.76.72.46.224.848.56 1.168 1.008.32.448.48 1.034.48 1.76Zm5.806-5.888c1.142 0 2.091.309 2.848.928.768.618 1.248 1.461 1.44 2.528h-2.384c-.096-.47-.314-.838-.656-1.104-.341-.278-.773-.416-1.296-.416-.597 0-1.098.224-1.504.672-.394.437-.592 1.082-.592 1.936 0 .853.198 1.504.592 1.952a1.97 1.97 0 0 0 1.504.656c.523 0 .955-.134 1.296-.4.342-.278.56-.651.656-1.12h2.384c-.192 1.066-.672 1.909-1.44 2.528-.757.618-1.706.928-2.848.928-.864 0-1.632-.182-2.304-.544a3.94 3.94 0 0 1-1.568-1.584c-.373-.683-.56-1.488-.56-2.416 0-.928.187-1.734.56-2.416a3.797 3.797 0 0 1 1.568-1.584c.672-.363 1.44-.544 2.304-.544Zm9.523 0c.747 0 1.387.176 1.92.528.534.352.912.826 1.136 1.424v-1.84h2.24v8.864h-2.24v-1.856a2.965 2.965 0 0 1-1.136 1.44c-.533.352-1.173.528-1.92.528a3.813 3.813 0 0 1-2.016-.544c-.597-.363-1.066-.886-1.408-1.568-.33-.694-.496-1.504-.496-2.432 0-.928.166-1.734.496-2.416.342-.694.811-1.222 1.408-1.584a3.804 3.804 0 0 1 2.016-.544Zm.704 1.968c-.704 0-1.269.229-1.696.688-.426.458-.64 1.088-.64 1.888 0 .8.214 1.429.64 1.888.427.448.992.672 1.696.672.683 0 1.243-.23 1.68-.688.448-.47.672-1.094.672-1.872 0-.79-.224-1.414-.672-1.872-.437-.47-.997-.704-1.68-.704Zm12.077-1.984c1.024 0 1.84.336 2.448 1.008.608.672.912 1.616.912 2.832v5.152h-2.24v-4.896c0-.704-.181-1.248-.544-1.632-.363-.395-.859-.592-1.488-.592-.64 0-1.152.208-1.536.624-.384.416-.576 1.013-.576 1.792v4.704h-2.256v-8.864h2.256v1.776a2.79 2.79 0 0 1 1.152-1.392c.544-.342 1.168-.512 1.872-.512Zm14.253-2.416c1.408 0 2.576.362 3.504 1.088.928.725 1.541 1.712 1.84 2.96h-2.368a3.08 3.08 0 0 0-1.152-1.44c-.512-.352-1.13-.528-1.856-.528-.597 0-1.136.149-1.616.448-.48.298-.853.725-1.12 1.28-.266.554-.4 1.205-.4 1.952 0 .736.134 1.381.4 1.936.267.554.64.981 1.12 1.28.48.298 1.019.448 1.616.448.725 0 1.344-.176 1.856-.528a3.08 3.08 0 0 0 1.152-1.44h2.368c-.298 1.248-.912 2.234-1.84 2.96-.928.725-2.096 1.088-3.504 1.088-1.077 0-2.032-.24-2.864-.72a5.088 5.088 0 0 1-1.92-2.048c-.448-.875-.672-1.867-.672-2.976 0-1.12.224-2.118.672-2.992a4.97 4.97 0 0 1 1.92-2.032c.822-.491 1.776-.736 2.864-.736Zm9.453 4.24a3.639 3.639 0 0 1 1.312-1.328 3.44 3.44 0 0 1 1.824-.496v2.416h-.656c-1.653 0-2.48.768-2.48 2.304v4.272h-2.256v-8.864h2.256v1.696Zm12.88 2.4c0 .224-.026.48-.08.768h-6.496c.032.789.246 1.37.64 1.744.395.373.886.56 1.472.56.523 0 .955-.128 1.296-.384a1.69 1.69 0 0 0 .672-1.04h2.384a3.819 3.819 0 0 1-.752 1.664 3.93 3.93 0 0 1-1.488 1.152c-.597.277-1.264.416-2 .416-.864 0-1.632-.182-2.304-.544a3.941 3.941 0 0 1-1.568-1.584c-.373-.683-.56-1.488-.56-2.416 0-.928.187-1.734.56-2.416a3.798 3.798 0 0 1 1.568-1.584c.672-.363 1.44-.544 2.304-.544.875 0 1.638.181 2.288.544a3.748 3.748 0 0 1 1.52 1.504c.363.629.544 1.349.544 2.16Zm-2.272-.224c.032-.726-.16-1.275-.576-1.648-.405-.374-.906-.56-1.504-.56-.608 0-1.12.186-1.536.56-.416.373-.645.922-.688 1.648h4.304Zm7.506-3.984c.747 0 1.381.176 1.904.528.533.352.917.826 1.152 1.424v-4.816h2.24v11.84h-2.24v-1.856a3.063 3.063 0 0 1-1.152 1.44c-.523.352-1.157.528-1.904.528a3.814 3.814 0 0 1-2.016-.544c-.597-.363-1.067-.886-1.408-1.568-.33-.694-.496-1.504-.496-2.432 0-.928.165-1.734.496-2.416.341-.694.81-1.222 1.408-1.584a3.805 3.805 0 0 1 2.016-.544Zm.704 1.968c-.704 0-1.27.229-1.696.688-.427.458-.64 1.088-.64 1.888 0 .8.213 1.429.64 1.888.427.448.992.672 1.696.672.683 0 1.243-.23 1.68-.688.448-.47.672-1.094.672-1.872 0-.79-.224-1.414-.672-1.872-.437-.47-.997-.704-1.68-.704Zm6.54-4.4c0-.363.128-.656.384-.88.256-.235.592-.352 1.008-.352.416 0 .752.117 1.008.352.256.224.384.517.384.88 0 .352-.128.645-.384.88-.256.224-.592.336-1.008.336-.416 0-.752-.112-1.008-.336a1.145 1.145 0 0 1-.384-.88Zm2.512 2.544v8.864h-2.256v-8.864h2.256Zm6.937 6.928v1.936h-1.184c-.992 0-1.754-.24-2.288-.72-.522-.48-.784-1.28-.784-2.4v-3.84h-1.232v-1.904h1.232v-2.192h2.256v2.192h1.984v1.904h-1.984v3.872c0 .426.086.725.256.896.171.17.459.256.864.256h.88Zm10.532-9.472c1.408 0 2.576.362 3.504 1.088.928.725 1.541 1.712 1.84 2.96h-2.368a3.077 3.077 0 0 0-1.152-1.44c-.512-.352-1.131-.528-1.856-.528-.597 0-1.136.149-1.616.448-.48.298-.853.725-1.12 1.28-.267.554-.4 1.205-.4 1.952 0 .736.133 1.381.4 1.936.267.554.64.981 1.12 1.28.48.298 1.019.448 1.616.448.725 0 1.344-.176 1.856-.528a3.077 3.077 0 0 0 1.152-1.44h2.368c-.299 1.248-.912 2.234-1.84 2.96-.928.725-2.096 1.088-3.504 1.088-1.077 0-2.032-.24-2.864-.72a5.092 5.092 0 0 1-1.92-2.048c-.448-.875-.672-1.867-.672-2.976 0-1.12.224-2.118.672-2.992a4.975 4.975 0 0 1 1.92-2.032c.821-.491 1.776-.736 2.864-.736Zm10.669 2.432c.746 0 1.386.176 1.92.528.533.352.912.826 1.136 1.424v-1.84h2.24v8.864h-2.24v-1.856a2.966 2.966 0 0 1-1.136 1.44c-.534.352-1.174.528-1.92.528a3.812 3.812 0 0 1-2.016-.544c-.598-.363-1.067-.886-1.408-1.568-.331-.694-.496-1.504-.496-2.432 0-.928.165-1.734.496-2.416.341-.694.81-1.222 1.408-1.584.597-.363 1.269-.544 2.016-.544Zm.704 1.968c-.704 0-1.27.229-1.696.688-.427.458-.64 1.088-.64 1.888 0 .8.213 1.429.64 1.888.426.448.992.672 1.696.672.682 0 1.242-.23 1.68-.688.448-.47.672-1.094.672-1.872 0-.79-.224-1.414-.672-1.872-.438-.47-.998-.704-1.68-.704Zm9.052-.16a3.641 3.641 0 0 1 1.312-1.328 3.44 3.44 0 0 1 1.824-.496v2.416h-.656c-1.653 0-2.48.768-2.48 2.304v4.272h-2.256v-8.864h2.256v1.696Zm8.017-1.808c.746 0 1.381.176 1.904.528.533.352.917.826 1.152 1.424v-4.816h2.24v11.84h-2.24v-1.856a3.063 3.063 0 0 1-1.152 1.44c-.523.352-1.158.528-1.904.528a3.812 3.812 0 0 1-2.016-.544c-.598-.363-1.067-.886-1.408-1.568-.331-.694-.496-1.504-.496-2.432 0-.928.165-1.734.496-2.416.341-.694.81-1.222 1.408-1.584.597-.363 1.269-.544 2.016-.544Zm.704 1.968c-.704 0-1.27.229-1.696.688-.427.458-.64 1.088-.64 1.888 0 .8.213 1.429.64 1.888.426.448.992.672 1.696.672.682 0 1.242-.23 1.68-.688.448-.47.672-1.094.672-1.872 0-.79-.224-1.414-.672-1.872-.438-.47-.998-.704-1.68-.704Zm9.852-1.968c1.078 0 1.942.272 2.592.816.651.544 1.056 1.269 1.216 2.176h-2.112c-.085-.427-.277-.768-.576-1.024-.298-.256-.688-.384-1.168-.384-.384 0-.682.09-.896.272-.213.181-.32.426-.32.736 0 .245.086.442.256.592.171.149.384.266.64.352.256.085.624.186 1.104.304.672.149 1.216.309 1.632.48.427.16.79.421 1.088.784.31.352.464.832.464 1.44 0 .757-.298 1.37-.896 1.84-.586.469-1.381.704-2.384.704-1.152 0-2.074-.256-2.768-.768-.693-.523-1.114-1.264-1.264-2.224h2.16c.054.437.246.784.576 1.04.331.245.763.368 1.296.368.384 0 .678-.091.88-.272a.97.97 0 0 0 .304-.736.791.791 0 0 0-.272-.624 1.688 1.688 0 0 0-.656-.368 14.463 14.463 0 0 0-1.104-.304c-.661-.15-1.2-.299-1.616-.448a2.72 2.72 0 0 1-1.056-.752c-.288-.342-.432-.811-.432-1.408 0-.768.294-1.392.88-1.872.587-.48 1.398-.72 2.432-.72Z" fill="#fff"/><path d="M30.639 190.687c0 .4-.096.772-.288 1.116-.192.344-.484.624-.876.84-.392.216-.876.324-1.452.324-.56 0-1.06-.1-1.5-.3a2.791 2.791 0 0 1-1.044-.84 2.44 2.44 0 0 1-.444-1.224h1.164c.024.24.104.476.24.708.144.224.344.412.6.564.264.144.58.216.948.216.48 0 .848-.128 1.104-.384.256-.256.384-.584.384-.984 0-.344-.092-.624-.276-.84a1.796 1.796 0 0 0-.66-.504 8.29 8.29 0 0 0-1.08-.408c-.536-.176-.968-.34-1.296-.492a2.322 2.322 0 0 1-.828-.708c-.224-.312-.336-.724-.336-1.236 0-.44.104-.828.312-1.164a2.13 2.13 0 0 1 .912-.78c.4-.184.868-.276 1.404-.276.832 0 1.492.204 1.98.612.488.4.772.912.852 1.536h-1.176a1.59 1.59 0 0 0-.516-.888c-.28-.256-.66-.384-1.14-.384-.44 0-.792.116-1.056.348-.264.224-.396.544-.396.96 0 .328.084.596.252.804.176.2.392.36.648.48.256.112.608.24 1.056.384.544.176.98.344 1.308.504.336.16.62.404.852.732.232.32.348.748.348 1.284Zm4.504-4.476c.84 0 1.536.224 2.088.672.552.448.892 1.048 1.02 1.8H37.1c-.08-.472-.3-.84-.66-1.104-.352-.272-.792-.408-1.32-.408-.384 0-.736.088-1.056.264-.312.176-.564.448-.756.816-.192.36-.288.808-.288 1.344s.096.988.288 1.356c.192.36.444.628.756.804.32.176.672.264 1.056.264.528 0 .968-.136 1.32-.408.36-.272.58-.644.66-1.116h1.152c-.128.76-.468 1.364-1.02 1.812-.552.44-1.248.66-2.088.66-.632 0-1.192-.136-1.68-.408a2.932 2.932 0 0 1-1.152-1.164c-.272-.512-.408-1.112-.408-1.8s.136-1.288.408-1.8c.28-.512.664-.904 1.152-1.176.488-.272 1.048-.408 1.68-.408Zm7.358 0c.64 0 1.18.16 1.62.48.447.32.76.748.935 1.284v-1.68h1.093v6.588h-1.093v-1.68a2.49 2.49 0 0 1-.935 1.284c-.44.32-.98.48-1.62.48a2.986 2.986 0 0 1-1.56-.408 2.87 2.87 0 0 1-1.08-1.164c-.256-.512-.384-1.112-.384-1.8s.128-1.288.384-1.8a2.853 2.853 0 0 1 1.08-1.176 2.986 2.986 0 0 1 1.56-.408Zm.312.972c-.672 0-1.213.216-1.62.648-.4.424-.6 1.012-.6 1.764s.2 1.344.6 1.776c.407.424.948.636 1.62.636.431 0 .816-.1 1.151-.3.345-.2.613-.48.805-.84.192-.368.288-.792.288-1.272s-.096-.904-.288-1.272a1.99 1.99 0 0 0-.804-.84c-.337-.2-.72-.3-1.153-.3Zm8.661-.996c.768 0 1.388.248 1.86.744.472.488.708 1.196.708 2.124v3.828H52.95v-3.732c0-.656-.168-1.16-.504-1.512-.336-.352-.792-.528-1.368-.528-.6 0-1.08.196-1.44.588-.36.384-.54.948-.54 1.692v3.492h-1.092v-6.588h1.092v1.56c.168-.536.464-.948.888-1.236a2.62 2.62 0 0 1 1.488-.432Zm7.904.108 2.136 5.184 1.98-5.184h1.212l-3.912 9.708h-1.236l1.368-3.228-2.772-6.48h1.224Zm9.437-.084c.632 0 1.196.136 1.692.408.504.272.896.664 1.176 1.176.288.512.432 1.112.432 1.8s-.144 1.288-.432 1.8a2.89 2.89 0 0 1-1.176 1.164c-.496.272-1.06.408-1.692.408a3.53 3.53 0 0 1-1.704-.408 2.99 2.99 0 0 1-1.176-1.164c-.288-.512-.432-1.112-.432-1.8s.144-1.288.432-1.8a2.97 2.97 0 0 1 1.176-1.176 3.53 3.53 0 0 1 1.704-.408Zm0 .96c-.392 0-.756.088-1.092.264a2.025 2.025 0 0 0-.804.816c-.2.36-.3.808-.3 1.344 0 .528.1.976.3 1.344.208.36.476.628.804.804.336.176.7.264 1.092.264.392 0 .752-.088 1.08-.264.336-.176.604-.444.804-.804.208-.368.312-.816.312-1.344 0-.536-.104-.984-.312-1.344a1.93 1.93 0 0 0-.804-.816 2.248 2.248 0 0 0-1.08-.264Zm10.7-.876v6.588h-1.093v-1.548c-.168.536-.468.948-.9 1.236-.424.28-.92.42-1.488.42-.76 0-1.376-.244-1.848-.732-.472-.496-.708-1.204-.708-2.124v-3.84h1.092v3.732c0 .656.168 1.164.504 1.524.336.352.792.528 1.368.528.6 0 1.08-.192 1.44-.576.36-.392.54-.96.54-1.704v-3.504h1.092Zm2.96 1.332c.217-.456.533-.808.949-1.056.416-.256.912-.384 1.488-.384v1.188h-.336c-.616 0-1.12.16-1.512.48-.392.312-.588.832-.588 1.56v3.468h-1.092v-6.588h1.092v1.332Zm6.55-1.416c.84 0 1.536.224 2.088.672.552.448.892 1.048 1.02 1.8h-1.152c-.08-.472-.3-.84-.66-1.104-.352-.272-.792-.408-1.32-.408-.384 0-.736.088-1.056.264-.312.176-.564.448-.756.816-.192.36-.288.808-.288 1.344s.096.988.288 1.356c.192.36.444.628.756.804.32.176.672.264 1.056.264.528 0 .968-.136 1.32-.408.36-.272.58-.644.66-1.116h1.152c-.128.76-.468 1.364-1.02 1.812-.552.44-1.248.66-2.088.66-.632 0-1.192-.136-1.68-.408a2.932 2.932 0 0 1-1.152-1.164c-.272-.512-.408-1.112-.408-1.8s.136-1.288.408-1.8c.28-.512.664-.904 1.152-1.176.488-.272 1.048-.408 1.68-.408Zm5.75 1.416c.215-.456.531-.808.947-1.056.416-.256.912-.384 1.488-.384v1.188h-.336c-.616 0-1.12.16-1.512.48-.392.312-.588.832-.588 1.56v3.468h-1.092v-6.588h1.092v1.332Zm9.693 1.596c0 .232-.016.432-.048.6h-5.268c.024.752.236 1.316.636 1.692.408.376.904.564 1.488.564.528 0 .968-.132 1.32-.396.36-.272.58-.632.66-1.08h1.164c-.08.456-.26.864-.54 1.224-.272.36-.628.64-1.068.84-.44.2-.936.3-1.488.3-.632 0-1.192-.136-1.68-.408a2.932 2.932 0 0 1-1.152-1.164c-.272-.512-.408-1.112-.408-1.8s.136-1.288.408-1.8c.28-.512.664-.904 1.152-1.176.488-.272 1.048-.408 1.68-.408.64 0 1.196.136 1.668.408.48.272.844.636 1.092 1.092.256.456.384.96.384 1.512Zm-1.104.072c.024-.488-.056-.896-.24-1.224a1.755 1.755 0 0 0-.756-.732c-.32-.16-.668-.24-1.044-.24-.6 0-1.104.188-1.512.564-.408.368-.628.912-.66 1.632h4.212Zm5.352-3.084c.64 0 1.18.16 1.62.48.448.32.76.748.936 1.284v-3.972h1.092v8.88h-1.092v-1.68a2.49 2.49 0 0 1-.936 1.284c-.44.32-.98.48-1.62.48a2.986 2.986 0 0 1-1.56-.408 2.87 2.87 0 0 1-1.08-1.164c-.256-.512-.384-1.112-.384-1.8s.128-1.288.384-1.8a2.853 2.853 0 0 1 1.08-1.176 2.986 2.986 0 0 1 1.56-.408Zm.312.972c-.672 0-1.212.216-1.62.648-.4.424-.6 1.012-.6 1.764s.2 1.344.6 1.776c.408.424.948.636 1.62.636.432 0 .816-.1 1.152-.3.344-.2.612-.48.804-.84.192-.368.288-.792.288-1.272s-.096-.904-.288-1.272a1.99 1.99 0 0 0-.804-.84c-.336-.2-.72-.3-1.152-.3Zm5.002-2.82c0-.2.068-.36.204-.48.136-.128.316-.192.54-.192.224 0 .404.064.54.192.136.12.204.28.204.48 0 .2-.068.364-.204.492-.136.12-.316.18-.54.18-.224 0-.404-.06-.54-.18a.646.646 0 0 1-.204-.492Zm1.284 1.932v6.588h-1.092v-6.588h1.092Zm5.02 5.628v.96h-.816c-.672 0-1.176-.16-1.512-.48-.328-.32-.492-.856-.492-1.608v-3.552h-.984v-.948h.984v-1.644h1.104v1.644h1.704v.948h-1.704v3.576c0 .424.076.716.228.876.16.152.432.228.816.228h.672Zm7.453-5.712c.84 0 1.536.224 2.088.672.552.448.892 1.048 1.02 1.8h-1.152c-.08-.472-.3-.84-.66-1.104-.352-.272-.792-.408-1.32-.408-.384 0-.736.088-1.056.264-.312.176-.564.448-.756.816-.192.36-.288.808-.288 1.344s.096.988.288 1.356c.192.36.444.628.756.804.32.176.672.264 1.056.264.528 0 .968-.136 1.32-.408.36-.272.58-.644.66-1.116h1.152c-.128.76-.468 1.364-1.02 1.812-.552.44-1.248.66-2.088.66-.632 0-1.192-.136-1.68-.408a2.932 2.932 0 0 1-1.152-1.164c-.272-.512-.408-1.112-.408-1.8s.136-1.288.408-1.8c.28-.512.664-.904 1.152-1.176.488-.272 1.048-.408 1.68-.408Zm7.357 0c.64 0 1.18.16 1.62.48.448.32.76.748.936 1.284v-1.68h1.092v6.588H137.7v-1.68a2.49 2.49 0 0 1-.936 1.284c-.44.32-.98.48-1.62.48a2.986 2.986 0 0 1-1.56-.408 2.87 2.87 0 0 1-1.08-1.164c-.256-.512-.384-1.112-.384-1.8s.128-1.288.384-1.8a2.853 2.853 0 0 1 1.08-1.176 2.986 2.986 0 0 1 1.56-.408Zm.312.972c-.672 0-1.212.216-1.62.648-.4.424-.6 1.012-.6 1.764s.2 1.344.6 1.776c.408.424.948.636 1.62.636.432 0 .816-.1 1.152-.3.344-.2.612-.48.804-.84.192-.368.288-.792.288-1.272s-.096-.904-.288-1.272a1.99 1.99 0 0 0-.804-.84c-.336-.2-.72-.3-1.152-.3Zm6.286.444c.216-.456.532-.808.948-1.056.416-.256.912-.384 1.488-.384v1.188h-.336c-.616 0-1.12.16-1.512.48-.392.312-.588.832-.588 1.56v3.468h-1.092v-6.588h1.092v1.332Zm6.334-1.416c.64 0 1.18.16 1.62.48.448.32.76.748.936 1.284v-3.972h1.092v8.88h-1.092v-1.68a2.49 2.49 0 0 1-.936 1.284c-.44.32-.98.48-1.62.48a2.986 2.986 0 0 1-1.56-.408 2.87 2.87 0 0 1-1.08-1.164c-.256-.512-.384-1.112-.384-1.8s.128-1.288.384-1.8a2.853 2.853 0 0 1 1.08-1.176 2.986 2.986 0 0 1 1.56-.408Zm.312.972c-.672 0-1.212.216-1.62.648-.4.424-.6 1.012-.6 1.764s.2 1.344.6 1.776c.408.424.948.636 1.62.636.432 0 .816-.1 1.152-.3.344-.2.612-.48.804-.84.192-.368.288-.792.288-1.272s-.096-.904-.288-1.272a1.99 1.99 0 0 0-.804-.84c-.336-.2-.72-.3-1.152-.3Zm8.086-2.82c0-.2.068-.36.204-.48.136-.128.316-.192.54-.192.224 0 .404.064.54.192.136.12.204.28.204.48 0 .2-.068.364-.204.492-.136.12-.316.18-.54.18-.224 0-.404-.06-.54-.18a.646.646 0 0 1-.204-.492Zm1.284 1.932v6.588h-1.092v-6.588h1.092Zm5.344-.108c.768 0 1.388.248 1.86.744.472.488.708 1.196.708 2.124v3.828h-1.092v-3.732c0-.656-.168-1.16-.504-1.512-.336-.352-.792-.528-1.368-.528-.6 0-1.08.196-1.44.588-.36.384-.54.948-.54 1.692v3.492h-1.092v-6.588h1.092v1.56c.168-.536.464-.948.888-1.236a2.62 2.62 0 0 1 1.488-.432Zm-98.338 23.752v-.912l4.344-5.664h1.176v5.628h1.248v.948h-1.248v1.944H69.18v-1.944h-4.416Zm4.488-5.244-3.336 4.296h3.336v-4.296Zm14.762.492c.768 0 1.384.248 1.848.744.472.488.708 1.196.708 2.124v3.828h-1.092v-3.732c0-.648-.16-1.144-.48-1.488-.312-.344-.744-.516-1.296-.516-.576 0-1.04.192-1.392.576-.344.376-.516.932-.516 1.668v3.492h-1.092v-3.732c0-.648-.16-1.144-.48-1.488-.32-.344-.752-.516-1.296-.516-.584 0-1.052.192-1.404.576-.344.376-.516.932-.516 1.668v3.492h-1.092v-6.588h1.092v1.5c.16-.52.444-.916.852-1.188.416-.28.892-.42 1.428-.42.56 0 1.044.144 1.452.432.416.28.712.696.888 1.248.184-.536.492-.948.924-1.236a2.53 2.53 0 0 1 1.464-.444Zm4.18-1.824c0-.2.067-.36.203-.48.136-.128.316-.192.54-.192.225 0 .404.064.54.192.136.12.204.28.204.48 0 .2-.067.364-.203.492-.136.12-.316.18-.54.18-.225 0-.404-.06-.54-.18a.646.646 0 0 1-.204-.492Zm1.284 1.932v6.588h-1.093v-6.588h1.093Zm5.343-.108c.768 0 1.388.248 1.86.744.472.488.708 1.196.708 2.124v3.828h-1.092v-3.732c0-.656-.168-1.16-.504-1.512-.336-.352-.792-.528-1.368-.528-.6 0-1.08.196-1.44.588-.36.384-.54.948-.54 1.692v3.492h-1.092v-6.588h1.092v1.56c.168-.536.464-.948.888-1.236a2.62 2.62 0 0 1 1.488-.432Zm10.219.108v6.588h-1.092v-1.548c-.168.536-.468.948-.9 1.236-.424.28-.92.42-1.488.42-.76 0-1.376-.244-1.848-.732-.472-.496-.708-1.204-.708-2.124v-3.84h1.092v3.732c0 .656.168 1.164.504 1.524.336.352.792.528 1.368.528.6 0 1.08-.192 1.44-.576.36-.392.54-.96.54-1.704v-3.504h1.092Zm5.014 5.628v.96h-.816c-.672 0-1.176-.16-1.512-.48-.328-.32-.492-.856-.492-1.608v-3.552h-.984v-.948h.984v-1.644h1.104v1.644h1.704v.948h-1.704v3.576c0 .424.076.716.228.876.16.152.432.228.816.228h.672Zm7.512-2.7c0 .232-.016.432-.048.6h-5.268c.024.752.236 1.316.636 1.692.408.376.904.564 1.488.564.528 0 .968-.132 1.32-.396.36-.272.58-.632.66-1.08h1.164c-.08.456-.26.864-.54 1.224-.272.36-.628.64-1.068.84-.44.2-.936.3-1.488.3-.632 0-1.192-.136-1.68-.408a2.932 2.932 0 0 1-1.152-1.164c-.272-.512-.408-1.112-.408-1.8s.136-1.288.408-1.8c.28-.512.664-.904 1.152-1.176.488-.272 1.048-.408 1.68-.408.64 0 1.196.136 1.668.408.48.272.844.636 1.092 1.092.256.456.384.96.384 1.512Zm-1.104.072c.024-.488-.056-.896-.24-1.224a1.755 1.755 0 0 0-.756-.732c-.32-.16-.668-.24-1.044-.24-.6 0-1.104.188-1.512.564-.408.368-.628.912-.66 1.632h4.212Zm4.716-3.084c.744 0 1.34.196 1.788.588.456.384.732.904.828 1.56h-1.044a1.476 1.476 0 0 0-.492-.96c-.272-.256-.64-.384-1.104-.384-.392 0-.7.096-.924.288-.216.184-.324.436-.324.756 0 .24.072.436.216.588.152.144.336.256.552.336.224.072.528.152.912.24.488.112.88.228 1.176.348.304.112.56.296.768.552.216.256.324.6.324 1.032 0 .536-.204.972-.612 1.308-.4.336-.936.504-1.608.504-.784 0-1.424-.188-1.92-.564-.496-.376-.788-.9-.876-1.572h1.056c.04.4.212.724.516.972.312.248.72.372 1.224.372.376 0 .668-.096.876-.288a.963.963 0 0 0 .324-.756c0-.256-.076-.46-.228-.612a1.495 1.495 0 0 0-.564-.348 8.249 8.249 0 0 0-.924-.252 9.342 9.342 0 0 1-1.176-.336 1.87 1.87 0 0 1-.744-.528c-.2-.248-.3-.58-.3-.996 0-.552.204-.996.612-1.332.408-.344.964-.516 1.668-.516Zm5.06 5.388v1.284h-1.32v-1.284h1.32Z" fill="#fff" fill-opacity=".7"/><path fill-rule="evenodd" clip-rule="evenodd" d="M92.428 106.883c.42 0 .76.334.76.747 0 .412-.34.746-.76.746l-1.63.001c-1.351.002-2.451 1.082-2.451 2.408v1.86a.756.756 0 0 1-.762.747.755.755 0 0 1-.761-.747v-1.86c0-2.149 1.783-3.899 3.974-3.901l1.629-.001Zm7.173 0h1.593c2.197 0 3.983 1.751 3.983 3.906v1.856c0 .412-.34.747-.761.747a.755.755 0 0 1-.761-.747v-1.856c0-1.331-1.104-2.414-2.461-2.414h-1.593a.753.753 0 0 1-.761-.745c0-.413.34-.747.76-.747Zm-.838 3.742h-5.525c-1.263.013-2.28 1.026-2.269 2.266v1.246a.276.276 0 0 0 .27.268h9.521a.277.277 0 0 0 .272-.268v-1.246a2.266 2.266 0 0 0-.66-1.603 2.277 2.277 0 0 0-1.61-.663Zm-13.001 5.299h20.477c.42 0 .761.334.761.747a.753.753 0 0 1-.761.745h-1.062v3.56c0 2.155-1.787 3.907-3.983 3.907h-1.593a.755.755 0 0 1-.762-.748c0-.411.341-.746.762-.746h1.593c1.357 0 2.461-1.081 2.461-2.413v-3.56h-2.623v.992c.01 1.24-1.005 2.254-2.27 2.266h-5.524c-1.264-.012-2.279-1.026-2.269-2.266v-.992h-2.623v3.564c0 1.327 1.101 2.406 2.454 2.408l1.628.001c.42 0 .761.335.761.746a.756.756 0 0 1-.762.748l-1.629-.001c-2.191-.002-3.975-1.753-3.975-3.902v-3.564h-1.061a.754.754 0 0 1-.762-.745c0-.413.342-.747.762-.747Z" fill="#00F6FF"/><g filter="url(#f)"><rect x="101" y="309.883" width="262" height="140" rx="20" fill="url(#g)"/></g><path d="M124.654 344.691v4.192h-2.256v-11.296h4.112c1.333 0 2.336.32 3.008.96.682.64 1.024 1.509 1.024 2.608 0 1.077-.352 1.936-1.056 2.576-.694.64-1.686.96-2.976.96h-1.856Zm1.616-1.808c1.322 0 1.984-.576 1.984-1.728 0-.566-.155-.998-.464-1.296-.31-.299-.816-.448-1.52-.448h-1.616v3.472h1.616Zm9.369-2.976c.747 0 1.387.176 1.92.528.533.352.912.826 1.136 1.424v-1.84h2.24v8.864h-2.24v-1.856a2.966 2.966 0 0 1-1.136 1.44c-.533.352-1.173.528-1.92.528a3.812 3.812 0 0 1-2.016-.544c-.597-.363-1.067-.886-1.408-1.568-.331-.694-.496-1.504-.496-2.432 0-.928.165-1.734.496-2.416.341-.694.811-1.222 1.408-1.584.597-.363 1.269-.544 2.016-.544Zm.704 1.968c-.704 0-1.269.229-1.696.688-.427.458-.64 1.088-.64 1.888 0 .8.213 1.429.64 1.888.427.448.992.672 1.696.672.683 0 1.243-.23 1.68-.688.448-.47.672-1.094.672-1.872 0-.79-.224-1.414-.672-1.872-.437-.47-.997-.704-1.68-.704Zm8.317-1.856 2.416 6.016 2.24-6.016h2.48l-5.424 13.088h-2.496l2-4.48-3.728-8.608h2.512Zm24.179-2.304v11.168h-2.24v-7.792l-2.864 7.792h-1.952l-2.864-7.76v7.76h-2.256v-11.168h2.736l3.392 8.4 3.328-8.4h2.72Zm10.538 6.4c0 .224-.026.48-.08.768h-6.496c.032.789.246 1.37.64 1.744.395.373.886.56 1.472.56.523 0 .955-.128 1.296-.384a1.69 1.69 0 0 0 .672-1.04h2.384a3.815 3.815 0 0 1-.752 1.664 3.93 3.93 0 0 1-1.488 1.152c-.597.277-1.264.416-2 .416-.864 0-1.632-.182-2.304-.544a3.945 3.945 0 0 1-1.568-1.584c-.373-.683-.56-1.488-.56-2.416 0-.928.187-1.734.56-2.416a3.801 3.801 0 0 1 1.568-1.584c.672-.363 1.44-.544 2.304-.544.875 0 1.638.181 2.288.544a3.745 3.745 0 0 1 1.52 1.504c.363.629.544 1.349.544 2.16Zm-2.272-.224c.032-.726-.16-1.275-.576-1.648-.405-.374-.906-.56-1.504-.56-.608 0-1.12.186-1.536.56-.416.373-.645.922-.688 1.648h4.304Zm8.77 3.056v1.936h-1.184c-.992 0-1.755-.24-2.288-.72-.523-.48-.784-1.28-.784-2.4v-3.84h-1.232v-1.904h1.232v-2.192h2.256v2.192h1.984v1.904h-1.984v3.872c0 .426.085.725.256.896.171.17.459.256.864.256h.88Zm7.063-7.056c1.024 0 1.84.336 2.448 1.008.608.672.912 1.616.912 2.832v5.152h-2.24v-4.896c0-.704-.181-1.248-.544-1.632-.362-.395-.858-.592-1.488-.592-.64 0-1.152.208-1.536.624-.384.416-.576 1.013-.576 1.792v4.704h-2.256v-11.84h2.256v4.752a2.793 2.793 0 0 1 1.152-1.392c.544-.342 1.168-.512 1.872-.512Zm9.601.016c.864 0 1.638.181 2.32.544a3.94 3.94 0 0 1 1.632 1.584c.395.682.592 1.488.592 2.416 0 .928-.197 1.733-.592 2.416a4.09 4.09 0 0 1-1.632 1.584c-.682.362-1.456.544-2.32.544-.864 0-1.642-.182-2.336-.544a4.134 4.134 0 0 1-1.616-1.584c-.394-.683-.592-1.488-.592-2.416 0-.928.198-1.734.592-2.416a3.979 3.979 0 0 1 1.616-1.584c.694-.363 1.472-.544 2.336-.544Zm0 1.952c-.629 0-1.162.224-1.6.672-.437.437-.656 1.077-.656 1.92 0 .842.219 1.488.656 1.936a2.18 2.18 0 0 0 1.6.656c.63 0 1.163-.219 1.6-.656.438-.448.656-1.094.656-1.936 0-.843-.218-1.483-.656-1.92a2.15 2.15 0 0 0-1.6-.672Zm9.771-1.952c.746 0 1.381.176 1.904.528.533.352.917.826 1.152 1.424v-4.816h2.24v11.84h-2.24v-1.856a3.063 3.063 0 0 1-1.152 1.44c-.523.352-1.158.528-1.904.528a3.812 3.812 0 0 1-2.016-.544c-.598-.363-1.067-.886-1.408-1.568-.331-.694-.496-1.504-.496-2.432 0-.928.165-1.734.496-2.416.341-.694.81-1.222 1.408-1.584.597-.363 1.269-.544 2.016-.544Zm.704 1.968c-.704 0-1.27.229-1.696.688-.427.458-.64 1.088-.64 1.888 0 .8.213 1.429.64 1.888.426.448.992.672 1.696.672.682 0 1.242-.23 1.68-.688.448-.47.672-1.094.672-1.872 0-.79-.224-1.414-.672-1.872-.438-.47-.998-.704-1.68-.704Z" fill="#fff"/><rect x="121" y="371.883" width="48" height="48" rx="10" fill="url(#h)"/><rect x="121" y="371.883" width="48" height="48" rx="10" fill="#fff"/><rect x="179" y="371.883" width="48" height="48" rx="10" fill="url(#i)"/><rect x="179" y="371.883" width="48" height="48" rx="10" fill="#fff"/><rect x="237" y="371.883" width="48" height="48" rx="10" fill="url(#j)"/><rect x="237" y="371.883" width="48" height="48" rx="10" fill="#fff"/><rect x="295" y="371.883" width="48" height="48" rx="10" fill="url(#k)"/><rect x="295" y="371.883" width="48" height="48" rx="10" fill="#fff"/><path d="m139.818 409.24.491-3.117-1.093-.026h-5.221l3.628-23.002a.298.298 0 0 1 .295-.251h8.802c2.922 0 4.938.608 5.991 1.808.494.563.808 1.151.96 1.799.16.679.163 1.491.007 2.481l-.011.072v.634l.493.28c.377.191.716.449.999.762.423.481.696 1.093.811 1.818.119.746.08 1.634-.115 2.639-.225 1.156-.59 2.163-1.081 2.987a6.148 6.148 0 0 1-1.713 1.877c-.653.463-1.429.815-2.306 1.04-.85.222-1.82.333-2.883.333h-.685c-.49 0-.966.177-1.339.493-.373.32-.62.761-.698 1.246l-.052.281-.867 5.494-.039.202c-.011.064-.028.095-.055.117a.146.146 0 0 1-.09.033h-4.229Z" fill="#253B80"/><path d="M154.627 389.077c-.026.168-.056.34-.09.516-1.16 5.96-5.132 8.019-10.203 8.019h-2.583c-.62 0-1.143.45-1.239 1.062l-1.323 8.385-.374 2.377a.655.655 0 0 0 .15.532.654.654 0 0 0 .502.232h4.58c.543 0 1.003-.394 1.089-.929l.045-.233.862-5.472.056-.301a1.1 1.1 0 0 1 1.088-.931h.685c4.438 0 7.912-1.801 8.927-7.015.424-2.178.204-3.996-.918-5.275a4.362 4.362 0 0 0-1.254-.967Z" fill="#179BD7"/><path d="M153.413 388.593a9.206 9.206 0 0 0-1.129-.251 14.448 14.448 0 0 0-2.276-.166h-6.899a1.098 1.098 0 0 0-1.088.931l-1.467 9.296-.042.271a1.248 1.248 0 0 1 1.239-1.062h2.583c5.071 0 9.043-2.06 10.203-8.019.035-.176.064-.348.09-.516a6.098 6.098 0 0 0-.954-.402 7.836 7.836 0 0 0-.26-.082Z" fill="#222D65"/><path d="M142.021 389.107a1.099 1.099 0 0 1 1.088-.93h6.899c.817 0 1.58.054 2.276.166.472.074.936.185 1.39.332.343.113.661.247.954.402.346-2.202-.002-3.702-1.193-5.06-1.313-1.494-3.682-2.134-6.714-2.134h-8.802c-.619 0-1.148.45-1.243 1.063l-3.667 23.239a.767.767 0 0 0 .172.609.76.76 0 0 0 .574.265h5.434l1.365-8.656 1.467-9.296Z" fill="#253B80"/><g clip-path="url(#l)" fill="#B9B9B9"><path d="M207.499 383.883c-1.28.088-2.775.907-3.647 1.974-.795.967-1.449 2.404-1.194 3.801 1.398.043 2.843-.795 3.68-1.88.783-1.009 1.375-2.437 1.161-3.895Z"/><path d="M212.555 391.935c-1.228-1.541-2.955-2.435-4.585-2.435-2.153 0-3.063 1.031-4.559 1.031-1.541 0-2.713-1.028-4.574-1.028-1.829 0-3.776 1.118-5.01 3.029-1.736 2.691-1.439 7.75 1.374 12.06 1.006 1.542 2.35 3.276 4.108 3.291 1.565.015 2.006-1.004 4.125-1.014 2.119-.012 2.521 1.027 4.083 1.011 1.759-.014 3.177-1.935 4.183-3.477.722-1.106.99-1.662 1.55-2.91-4.07-1.55-4.722-7.337-.695-9.558Z"/></g><path d="m256.733 400.479 1.626-9.142h2.539l-1.574 9.142h-2.591Z" fill="#3C58BF"/><path d="m256.733 400.479 2.083-9.142h2.082l-1.574 9.142h-2.591Z" fill="#293688"/><path d="M268.517 391.438c-.508-.203-1.32-.406-2.336-.406-2.54 0-4.368 1.27-4.368 3.098 0 1.372 1.269 2.083 2.285 2.54 1.016.457 1.321.762 1.321 1.168 0 .61-.813.914-1.524.914-1.016 0-1.574-.152-2.438-.507l-.355-.153-.356 2.083c.609.254 1.727.508 2.895.508 2.692 0 4.47-1.27 4.47-3.2 0-1.067-.66-1.88-2.184-2.54-.914-.457-1.473-.711-1.473-1.168 0-.407.457-.813 1.473-.813.863 0 1.473.152 1.93.356l.254.101.406-1.981Z" fill="#3C58BF"/><path d="M268.517 391.438c-.508-.203-1.32-.406-2.336-.406-2.54 0-3.911 1.27-3.911 3.098 0 1.372.812 2.083 1.828 2.54 1.016.457 1.321.762 1.321 1.168 0 .61-.813.914-1.524.914-1.016 0-1.574-.152-2.438-.507l-.355-.153-.356 2.083c.609.254 1.727.508 2.895.508 2.692 0 4.47-1.27 4.47-3.2 0-1.067-.66-1.88-2.184-2.54-.914-.457-1.473-.711-1.473-1.168 0-.407.457-.813 1.473-.813.863 0 1.473.152 1.93.356l.254.101.406-1.981Z" fill="#293688"/><path d="M272.886 391.337c-.61 0-1.067.05-1.321.66l-3.81 8.482h2.743l.508-1.523h3.251l.305 1.523H277l-2.133-9.142h-1.981Zm-1.169 6.095c.153-.457 1.016-2.692 1.016-2.692s.203-.559.356-.915l.152.864s.508 2.286.61 2.794h-2.134v-.051Z" fill="#3C58BF"/><path d="M273.495 391.337c-.609 0-1.067.05-1.32.66l-4.42 8.482h2.743l.508-1.523h3.251l.305 1.523H277l-2.133-9.142h-1.372Zm-1.778 6.095c.204-.508 1.016-2.692 1.016-2.692s.203-.559.356-.915l.152.864s.508 2.286.61 2.794h-2.134v-.051Z" fill="#293688"/><path d="m252.06 397.737-.254-1.321c-.457-1.524-1.93-3.2-3.555-4.013l2.285 8.127h2.743l4.115-9.143h-2.743l-2.591 6.35Z" fill="#3C58BF"/><path d="m252.06 397.737-.254-1.321c-.457-1.524-1.93-3.2-3.555-4.013l2.285 8.127h2.743l4.115-9.143h-2.235l-3.099 6.35Z" fill="#293688"/><path d="m245 391.337.457.101c3.251.762 5.486 2.692 6.349 4.978l-.914-4.318c-.152-.609-.609-.761-1.168-.761H245Z" fill="#FFBC00"/><path d="M245 391.337c3.251.761 5.943 2.742 6.806 5.028l-.863-3.606a1.24 1.24 0 0 0-1.219-.965l-4.724-.457Z" fill="#F7981D"/><path d="M245 391.337c3.251.761 5.943 2.742 6.806 5.028l-.609-1.981c-.153-.609-.356-1.219-1.067-1.473l-5.13-1.574Z" fill="#ED7C00"/><path d="m254.6 397.432-1.727-1.727-.813 1.93-.203-1.27c-.457-1.524-1.93-3.2-3.555-4.013l2.285 8.127h2.743l1.27-3.047ZM259.324 400.479l-2.184-2.235-.407 2.235h2.591ZM265.165 397.33c.203.203.305.356.254.559 0 .609-.813.914-1.524.914-1.016 0-1.574-.152-2.438-.508l-.355-.152-.356 2.082c.61.254 1.727.508 2.895.508 1.626 0 2.946-.457 3.708-1.27l-2.184-2.133ZM268.111 400.479h2.388l.507-1.523h3.251l.305 1.523H277l-.863-3.708-3.048-2.946.152.813s.508 2.286.61 2.794h-2.133c.203-.508 1.015-2.692 1.015-2.692s.204-.559.356-.915" fill="#051244"/><path d="M308.477 392.619c-.006-.054-.054-.078-.091-.078-.036 0-.826-.061-.826-.061s-.549-.548-.615-.603c-.061-.06-.175-.042-.224-.03-.006 0-.12.036-.307.097-.187-.537-.507-1.026-1.08-1.026h-.054c-.157-.205-.362-.301-.531-.301-1.327 0-1.967 1.658-2.166 2.503-.518.163-.886.271-.929.289-.289.091-.295.097-.331.368-.031.205-.785 6.039-.785 6.039l5.87 1.097 3.185-.687c.006-.012-1.11-7.553-1.116-7.607Zm-2.389-.591c-.145.042-.32.097-.495.157v-.109a2.33 2.33 0 0 0-.12-.802c.301.036.488.368.615.754Zm-.983-.688c.078.205.133.495.133.893v.06c-.326.103-.67.206-1.026.32.199-.76.579-1.134.893-1.273Zm-.386-.374c.06 0 .12.025.169.061-.429.199-.881.699-1.068 1.713-.284.09-.555.169-.814.253.217-.772.76-2.027 1.713-2.027Z" fill="#95BF47"/><path d="M308.386 392.529c-.036 0-.826-.061-.826-.061s-.549-.548-.615-.603a.118.118 0 0 0-.079-.036l-.44 9.085 3.185-.688s-1.116-7.552-1.122-7.607a.161.161 0 0 0-.103-.09Z" fill="#5E8E3E"/><path d="m305.334 394.29-.386 1.164s-.35-.187-.766-.187c-.621 0-.652.392-.652.489 0 .531 1.388.736 1.388 1.985 0 .983-.621 1.616-1.46 1.616-1.013 0-1.52-.627-1.52-.627l.271-.893s.531.459.978.459c.295 0 .416-.23.416-.399 0-.693-1.134-.723-1.134-1.87 0-.959.687-1.888 2.081-1.888.519-.006.784.151.784.151Z" fill="#fff"/><path d="M313.309 396.48c-.32-.169-.483-.32-.483-.519 0-.253.229-.416.585-.416.416 0 .784.169.784.169l.29-.887s-.266-.205-1.05-.205c-1.092 0-1.852.627-1.852 1.508 0 .501.356.881.827 1.152.386.211.519.368.519.597 0 .236-.193.429-.549.429-.525 0-1.026-.272-1.026-.272l-.307.887s.458.307 1.23.307c1.122 0 1.936-.554 1.936-1.55-.012-.543-.416-.917-.904-1.2Zm4.476-1.87c-.555 0-.99.265-1.322.663l-.012-.006.483-2.509h-1.249l-1.218 6.394h1.248l.417-2.184c.163-.826.591-1.339.989-1.339.283 0 .392.193.392.465 0 .169-.012.386-.054.555l-.471 2.503h1.249l.489-2.582a4.68 4.68 0 0 0 .09-.82c-.006-.718-.374-1.14-1.031-1.14Zm3.854 0c-1.508 0-2.503 1.357-2.503 2.871 0 .965.597 1.749 1.719 1.749 1.478 0 2.473-1.321 2.473-2.871.006-.899-.513-1.749-1.689-1.749Zm-.615 3.667c-.428 0-.603-.362-.603-.82 0-.718.368-1.882 1.049-1.882.441 0 .591.386.591.754 0 .766-.38 1.948-1.037 1.948Zm5.507-3.667c-.844 0-1.321.748-1.321.748h-.012l.072-.67h-1.109a28.929 28.929 0 0 1-.254 1.659l-.862 4.579h1.248l.35-1.852h.03s.26.163.73.163c1.472 0 2.431-1.509 2.431-3.029-.006-.844-.386-1.598-1.303-1.598Zm-1.194 3.679a.788.788 0 0 1-.519-.187l.205-1.164c.145-.784.555-1.297.989-1.297.387 0 .501.356.501.688.006.808-.476 1.96-1.176 1.96Zm4.277-5.471a.717.717 0 0 0-.718.724c0 .368.235.627.591.627h.012c.392 0 .724-.265.73-.723.006-.368-.241-.628-.615-.628Zm-1.75 6.328h1.249l.845-4.44h-1.255l-.839 4.44Zm5.279-4.446h-.869l.042-.205c.073-.428.326-.802.748-.802.223 0 .398.066.398.066l.242-.983s-.212-.109-.682-.109c-.44 0-.887.127-1.225.417-.428.362-.627.886-.724 1.417l-.036.205h-.585l-.187.947h.585l-.663 3.499h1.248l.664-3.499h.863l.181-.953Zm3.01.006s-.785 1.973-1.128 3.053h-.012c-.025-.35-.308-3.053-.308-3.053h-1.315l.754 4.066c.012.091.006.145-.03.205a2.123 2.123 0 0 1-.682.754 2.782 2.782 0 0 1-.712.356l.35 1.062c.254-.055.784-.266 1.225-.682.567-.531 1.098-1.357 1.64-2.479l1.527-3.288h-1.309v.006Z" fill="#000"/><rect x="257" y="38.883" width="256" height="238" rx="20" fill="#C4C4C4" fill-opacity=".4"/><rect x="257" y="38.883" width="256" height="238" rx="20" fill="url(#m)"/><rect x="342" y="235.883" width="28" height="21" rx="5" fill="url(#n)"/><path d="M346.77 249.883h.91v-5.17l2.31 5.17h.64l2.3-5.16v5.16h.91v-6.92h-.97l-2.56 5.72-2.56-5.72h-.98v6.92Zm8.273-2.76c0 1.7 1.13 2.85 2.59 2.85 1.01 0 1.72-.52 2.05-1.11v1.02h.92v-5.48h-.92v1c-.32-.57-1.02-1.09-2.04-1.09-1.47 0-2.6 1.1-2.6 2.81Zm4.64.01c0 1.29-.86 2.04-1.86 2.04s-1.85-.76-1.85-2.05c0-1.29.85-2.02 1.85-2.02s1.86.76 1.86 2.03Zm3.368-.23c0-1.27.66-1.66 1.53-1.66h.24v-.94c-.87 0-1.46.38-1.77.99v-.89h-.91v5.48h.91v-2.98Z" fill="#14101D"/><path d="M291.16 242.833v5.24c0 .58-.167 1.04-.5 1.38-.327.333-.787.5-1.38.5-.64 0-1.143-.187-1.51-.56-.36-.38-.54-.91-.54-1.59h.91c0 .406.09.73.27.97.18.233.457.35.83.35.353 0 .61-.1.77-.3.16-.2.24-.45.24-.75v-5.24h.91Zm3.664 1.49c.533 0 .983.133 1.35.4.373.266.633.623.78 1.07v-1.4h.91v5.49h-.91v-1.4a2.083 2.083 0 0 1-.78 1.07c-.367.266-.817.4-1.35.4-.487 0-.92-.114-1.3-.34-.38-.227-.68-.55-.9-.97-.214-.427-.32-.927-.32-1.5 0-.574.106-1.074.32-1.5.22-.427.52-.754.9-.98.38-.227.813-.34 1.3-.34Zm.26.81c-.56 0-1.01.18-1.35.54-.334.353-.5.843-.5 1.47 0 .626.166 1.12.5 1.48.34.353.79.53 1.35.53.36 0 .68-.084.96-.25.286-.167.51-.4.67-.7.16-.307.24-.66.24-1.06s-.08-.754-.24-1.06a1.66 1.66 0 0 0-.67-.7c-.28-.167-.6-.25-.96-.25Zm7.118-.83c.64 0 1.157.206 1.55.62.393.406.59.996.59 1.77v3.19h-.91v-3.11c0-.547-.14-.967-.42-1.26-.28-.294-.66-.44-1.14-.44-.5 0-.9.163-1.2.49-.3.32-.45.79-.45 1.41v2.91h-.91v-5.49h.91v1.3c.14-.447.387-.79.74-1.03.36-.24.773-.36 1.24-.36ZM321.72 242.833v.74h-3.08v2.44h2.61v.71h-2.61v3.16h-.91v-7.05h3.99Zm6.128 4c0 .193-.013.36-.04.5h-4.39c.02.626.197 1.096.53 1.41.34.313.754.47 1.24.47.44 0 .807-.11 1.1-.33.3-.227.484-.527.55-.9h.97c-.066.38-.216.72-.45 1.02-.226.3-.523.533-.89.7-.366.166-.78.25-1.24.25-.526 0-.993-.114-1.4-.34a2.454 2.454 0 0 1-.96-.97c-.226-.427-.34-.927-.34-1.5 0-.574.114-1.074.34-1.5a2.43 2.43 0 0 1 .96-.98c.407-.227.874-.34 1.4-.34.534 0 .997.113 1.39.34.4.226.704.53.91.91.214.38.32.8.32 1.26Zm-.92.06c.02-.407-.046-.747-.2-1.02a1.453 1.453 0 0 0-.63-.61 1.905 1.905 0 0 0-.87-.2c-.5 0-.92.156-1.26.47-.34.306-.523.76-.55 1.36h3.51Zm5.141-2.57c.486 0 .92.113 1.3.34.38.226.676.553.89.98.22.426.33.926.33 1.5 0 .573-.11 1.073-.33 1.5-.214.42-.51.743-.89.97-.38.226-.814.34-1.3.34-.534 0-.987-.134-1.36-.4a2.095 2.095 0 0 1-.76-1.07v1.4h-.91v-7.4h.91v3.31c.14-.44.393-.794.76-1.06.373-.274.826-.41 1.36-.41Zm-.26.81c-.354 0-.674.083-.96.25-.287.16-.51.393-.67.7-.16.306-.24.66-.24 1.06s.08.753.24 1.06c.16.3.383.533.67.7.286.166.606.25.96.25.566 0 1.016-.177 1.35-.53.34-.36.51-.854.51-1.48 0-.627-.17-1.117-.51-1.47-.334-.36-.784-.54-1.35-.54ZM381.86 248.253h-3.1l-.59 1.63h-.98l2.61-6.92h1.03l2.6 6.92h-.98l-.59-1.63Zm-.26-.71-1.29-3.56-1.29 3.56h2.58Zm5.781-3.22c.487 0 .92.113 1.3.34.38.226.677.553.89.98.22.426.33.926.33 1.5 0 .573-.11 1.073-.33 1.5-.213.42-.51.743-.89.97-.38.226-.813.34-1.3.34-.533 0-.987-.134-1.36-.4a2.095 2.095 0 0 1-.76-1.07v4h-.91v-8.09h.91v1.4c.14-.44.393-.794.76-1.06.373-.274.827-.41 1.36-.41Zm-.26.81c-.353 0-.673.083-.96.25-.287.16-.51.393-.67.7-.16.306-.24.66-.24 1.06s.08.753.24 1.06c.16.3.383.533.67.7.287.166.607.25.96.25.567 0 1.017-.177 1.35-.53.34-.36.51-.854.51-1.48 0-.627-.17-1.117-.51-1.47-.333-.36-.783-.54-1.35-.54Zm4.878.37c.18-.38.444-.674.79-.88.347-.214.76-.32 1.24-.32v.99h-.28c-.513 0-.933.133-1.26.4-.326.26-.49.693-.49 1.3v2.89h-.91v-5.49h.91v1.11ZM412.79 242.953v6.93h-.91v-5.53l-2.21 5.53h-.81l-2.22-5.51v5.51h-.91v-6.93h1.09l2.46 5.82 2.42-5.82h1.09Zm3.706 1.37c.533 0 .983.133 1.35.4.373.266.633.623.78 1.07v-1.4h.91v5.49h-.91v-1.4a2.083 2.083 0 0 1-.78 1.07c-.367.266-.817.4-1.35.4-.487 0-.92-.114-1.3-.34-.38-.227-.68-.55-.9-.97-.214-.427-.32-.927-.32-1.5 0-.574.106-1.074.32-1.5.22-.427.52-.754.9-.98.38-.227.813-.34 1.3-.34Zm.26.81c-.56 0-1.01.18-1.35.54-.334.353-.5.843-.5 1.47 0 .626.166 1.12.5 1.48.34.353.79.53 1.35.53.36 0 .68-.084.96-.25.286-.167.51-.4.67-.7.16-.307.24-.66.24-1.06s-.08-.754-.24-1.06a1.66 1.66 0 0 0-.67-.7c-.28-.167-.6-.25-.96-.25Zm4.608-.74 1.78 4.32 1.65-4.32h1.01l-3.26 8.09h-1.03l1.14-2.69-2.31-5.4h1.02ZM442.16 242.833v5.24c0 .58-.167 1.04-.5 1.38-.327.333-.787.5-1.38.5-.64 0-1.143-.187-1.51-.56-.36-.38-.54-.91-.54-1.59h.91c0 .406.09.73.27.97.18.233.457.35.83.35.353 0 .61-.1.77-.3.16-.2.24-.45.24-.75v-5.24h.91Zm6.294 1.56v5.49h-.91v-1.29c-.14.446-.39.79-.75 1.03-.354.233-.767.35-1.24.35-.634 0-1.147-.204-1.54-.61-.394-.414-.59-1.004-.59-1.77v-3.2h.91v3.11c0 .546.14.97.42 1.27.28.293.66.44 1.14.44.5 0 .9-.16 1.2-.48.3-.327.45-.8.45-1.42v-2.92h.91Zm4.348-.09c.64 0 1.156.206 1.55.62.393.406.59.996.59 1.77v3.19h-.91v-3.11c0-.547-.14-.967-.42-1.26-.28-.294-.66-.44-1.14-.44-.5 0-.9.163-1.2.49-.3.32-.45.79-.45 1.41v2.91h-.91v-5.49h.91v1.3c.14-.447.386-.79.74-1.03.36-.24.773-.36 1.24-.36ZM473.16 242.833v5.24c0 .58-.167 1.04-.5 1.38-.327.333-.787.5-1.38.5-.64 0-1.143-.187-1.51-.56-.36-.38-.54-.91-.54-1.59h.91c0 .406.09.73.27.97.18.233.457.35.83.35.353 0 .61-.1.77-.3.16-.2.24-.45.24-.75v-5.24h.91Zm6.294 1.56v5.49h-.91v-1.29c-.14.446-.39.79-.75 1.03-.354.233-.767.35-1.24.35-.634 0-1.147-.204-1.54-.61-.394-.414-.59-1.004-.59-1.77v-3.2h.91v3.11c0 .546.14.97.42 1.27.28.293.66.44 1.14.44.5 0 .9-.16 1.2-.48.3-.327.45-.8.45-1.42v-2.92h.91Zm2.368-1.91v7.4h-.91v-7.4h.91Z" fill="#fff" fill-opacity=".7"/><path d="M277 149.29c3.796 0 6.073-.917 9.721 0 6.372 1.603 5.881 8.266 12.008 10.481 5.574 2.015 9.6-.827 15.439.499 13.145 2.986 11.871 18.503 25.159 20.961 5.243.97 8.524-1.135 13.724 0 11.029 2.406 9.71 20.86 20.585 17.966 5.144-1.369 5.248-6.358 10.292-7.985 12.445-4.014 11.728 23.309 24.588 20.462 7.501-1.66 6.943-9.869 14.295-11.977 5.304-1.522 8.761.636 14.295 0 25.363-2.918 21.385-38.179 46.889-39.926 3.116-.214 8.005 0 8.005 0" stroke="url(#o)" stroke-opacity=".2"/><path d="M353 180.94c11.022 2.43 9.704 21.058 20.571 18.137 5.141-1.382 5.245-6.418 10.286-8.061 12.437-4.052 11.72 23.53 24.572 20.656 7.496-1.676 6.938-9.963 14.285-12.091 5.3-1.536 8.755.643 14.286 0 13.164-1.53 18.419-11.868 24-21.698" stroke="url(#p)" stroke-width="2" stroke-linecap="round"/><path d="M280.996 108.107c.568.176 1.024.344 1.368.504.352.16.648.404.888.732.248.32.372.748.372 1.284 0 .416-.108.804-.324 1.164-.208.352-.524.636-.948.852-.424.216-.944.324-1.56.324h-.024v.96h-.408v-.984c-.792-.064-1.44-.312-1.944-.744a2.4 2.4 0 0 1-.84-1.668h1.464c.032.312.16.596.384.852.232.256.544.416.936.48v-2.724c-.656-.2-1.156-.372-1.5-.516a2.43 2.43 0 0 1-.912-.72c-.264-.328-.396-.768-.396-1.32 0-.448.116-.844.348-1.188.24-.344.572-.612.996-.804.424-.192.912-.288 1.464-.288v-1.02h.408v1.032c.784.056 1.408.288 1.872.696.464.408.732.924.804 1.548h-1.476a1.34 1.34 0 0 0-.384-.744c-.2-.216-.472-.356-.816-.42v2.64l.228.072Zm-1.98-1.572c0 .352.116.632.348.84.232.2.564.376.996.528v-2.544c-.416.008-.744.116-.984.324-.24.2-.36.484-.36.852Zm1.752 5.364c.44 0 .78-.116 1.02-.348.248-.232.372-.528.372-.888 0-.368-.12-.652-.36-.852-.24-.208-.584-.388-1.032-.54v2.628Zm6.685-.084c1.296-.888 2.332-1.756 3.108-2.604.784-.856 1.176-1.648 1.176-2.376 0-.432-.108-.776-.324-1.032-.208-.256-.548-.384-1.02-.384-.488 0-.856.16-1.104.48-.248.312-.388.76-.42 1.344h-1.332c.056-.968.352-1.708.888-2.22.544-.512 1.236-.768 2.076-.768.824 0 1.468.22 1.932.66.472.432.708 1.032.708 1.8 0 .616-.192 1.24-.576 1.872a7.773 7.773 0 0 1-1.44 1.752c-.584.528-1.188.984-1.812 1.368h4.02v1.116h-5.88v-1.008Zm7.996.132c.144.368.216.748.216 1.14 0 .448-.116.812-.348 1.092-.232.288-.584.432-1.056.432v-.552c.2 0 .348-.052.444-.156.096-.104.144-.28.144-.528v-.108h-.696v-1.32h1.296Zm4.253-7.8c.56 0 1.04.1 1.44.3.4.192.7.46.9.804.208.344.312.728.312 1.152 0 .536-.152.984-.456 1.344-.296.352-.716.564-1.26.636v.06c.584.168 1.04.42 1.368.756.336.328.504.784.504 1.368 0 .712-.236 1.292-.708 1.74-.472.44-1.148.66-2.028.66-.904 0-1.632-.228-2.184-.684-.552-.464-.868-1.148-.948-2.052h1.356c.048.48.22.864.516 1.152.296.28.696.42 1.2.42.472 0 .832-.124 1.08-.372.256-.248.384-.568.384-.96 0-.472-.184-.832-.552-1.08-.36-.248-.884-.372-1.572-.372h-.324v-1.128h.324c1.304.016 1.956-.428 1.956-1.332 0-.392-.12-.7-.36-.924-.24-.224-.568-.336-.984-.336-.416 0-.764.128-1.044.384-.28.248-.448.612-.504 1.092h-1.344c.056-.832.336-1.476.84-1.932.504-.464 1.2-.696 2.088-.696Zm7.125 0c.56 0 1.04.1 1.44.3.4.192.7.46.9.804.208.344.312.728.312 1.152 0 .536-.152.984-.456 1.344-.296.352-.716.564-1.26.636v.06c.584.168 1.04.42 1.368.756.336.328.504.784.504 1.368 0 .712-.236 1.292-.708 1.74-.472.44-1.148.66-2.028.66-.904 0-1.632-.228-2.184-.684-.552-.464-.868-1.148-.948-2.052h1.356c.048.48.22.864.516 1.152.296.28.696.42 1.2.42.472 0 .832-.124 1.08-.372.256-.248.384-.568.384-.96 0-.472-.184-.832-.552-1.08-.36-.248-.884-.372-1.572-.372h-.324v-1.128h.324c1.304.016 1.956-.428 1.956-1.332 0-.392-.12-.7-.36-.924-.24-.224-.568-.336-.984-.336-.416 0-.764.128-1.044.384-.28.248-.448.612-.504 1.092h-1.344c.056-.832.336-1.476.84-1.932.504-.464 1.2-.696 2.088-.696Zm3.945 6.912v-1.152l4.212-5.568h1.464v5.52h1.188v1.2h-1.188v1.824h-1.38v-1.824h-4.296Zm4.392-5.088-2.976 3.888h2.976v-3.888Zm4.473 5.976c.144.368.216.748.216 1.14 0 .448-.116.812-.348 1.092-.232.288-.584.432-1.056.432v-.552c.2 0 .348-.052.444-.156.096-.104.144-.28.144-.528v-.108h-.696v-1.32h1.296Zm5.92-5.256c-.144-.944-.636-1.416-1.476-1.416-.608 0-1.064.244-1.368.732-.304.48-.456 1.236-.456 2.268l.012.408c.12-.432.38-.776.78-1.032s.872-.384 1.416-.384c.832 0 1.484.248 1.956.744s.708 1.196.708 2.1c0 .544-.108 1.032-.324 1.464-.216.424-.54.764-.972 1.02-.432.248-.964.372-1.596.372-1.224 0-2.064-.38-2.52-1.14-.456-.76-.684-1.804-.684-3.132 0-1.52.244-2.656.732-3.408.488-.752 1.288-1.128 2.4-1.128.832 0 1.468.236 1.908.708.448.472.708 1.08.78 1.824h-1.296Zm-3.168 3.264c0 .52.152.956.456 1.308.304.344.752.516 1.344.516.504 0 .904-.148 1.2-.444.304-.296.456-.708.456-1.236 0-.568-.152-1.004-.456-1.308-.304-.304-.716-.456-1.236-.456-.472 0-.884.14-1.236.42-.352.28-.528.68-.528 1.2Zm11.149-4.56-3.156 7.488h-1.44l3.204-7.332h-4.2v-1.188h5.592v1.032Z" fill="#00D2AA"/><path d="M278.476 119.538v6.345h-.819v-6.345h.819Zm3.918 1.323c.576 0 1.041.186 1.395.558.354.366.531.897.531 1.593v2.871h-.819v-2.799c0-.492-.126-.87-.378-1.134-.252-.264-.594-.396-1.026-.396-.45 0-.81.147-1.08.441-.27.288-.405.711-.405 1.269v2.619h-.819v-4.941h.819v1.17a1.69 1.69 0 0 1 .666-.927 1.965 1.965 0 0 1 1.116-.324Zm5.369.018c.63 0 1.152.168 1.566.504.414.336.669.786.765 1.35h-.864a1.24 1.24 0 0 0-.495-.828c-.264-.204-.594-.306-.99-.306-.288 0-.552.066-.792.198a1.444 1.444 0 0 0-.567.612c-.144.27-.216.606-.216 1.008s.072.741.216 1.017c.144.27.333.471.567.603.24.132.504.198.792.198.396 0 .726-.102.99-.306.27-.204.435-.483.495-.837h.864c-.096.57-.351 1.023-.765 1.359-.414.33-.936.495-1.566.495-.474 0-.894-.102-1.26-.306a2.2 2.2 0 0 1-.864-.873c-.204-.384-.306-.834-.306-1.35 0-.516.102-.966.306-1.35.21-.384.498-.678.864-.882a2.544 2.544 0 0 1 1.26-.306Zm5.644 0c.474 0 .897.102 1.269.306.378.204.672.498.882.882.216.384.324.834.324 1.35 0 .516-.108.966-.324 1.35-.21.378-.504.669-.882.873a2.595 2.595 0 0 1-1.269.306c-.474 0-.9-.102-1.278-.306a2.243 2.243 0 0 1-.882-.873c-.216-.384-.324-.834-.324-1.35 0-.516.108-.966.324-1.35.216-.384.51-.678.882-.882a2.647 2.647 0 0 1 1.278-.306Zm0 .72c-.294 0-.567.066-.819.198a1.519 1.519 0 0 0-.603.612c-.15.27-.225.606-.225 1.008 0 .396.075.732.225 1.008.156.27.357.471.603.603.252.132.525.198.819.198.294 0 .564-.066.81-.198a1.46 1.46 0 0 0 .603-.603c.156-.276.234-.612.234-1.008 0-.402-.078-.738-.234-1.008a1.448 1.448 0 0 0-.603-.612 1.686 1.686 0 0 0-.81-.198Zm9.617-.738c.576 0 1.038.186 1.386.558.354.366.531.897.531 1.593v2.871h-.819v-2.799c0-.486-.12-.858-.36-1.116-.234-.258-.558-.387-.972-.387-.432 0-.78.144-1.044.432-.258.282-.387.699-.387 1.251v2.619h-.819v-2.799c0-.486-.12-.858-.36-1.116-.24-.258-.564-.387-.972-.387-.438 0-.789.144-1.053.432-.258.282-.387.699-.387 1.251v2.619h-.819v-4.941h.819v1.125c.12-.39.333-.687.639-.891.312-.21.669-.315 1.071-.315.42 0 .783.108 1.089.324.312.21.534.522.666.936.138-.402.369-.711.693-.927.324-.222.69-.333 1.098-.333Zm7.734 2.277c0 .174-.012.324-.036.45h-3.951c.018.564.177.987.477 1.269.306.282.678.423 1.116.423.396 0 .726-.099.99-.297.27-.204.435-.474.495-.81h.873a2.05 2.05 0 0 1-.405.918c-.204.27-.471.48-.801.63-.33.15-.702.225-1.116.225-.474 0-.894-.102-1.26-.306a2.2 2.2 0 0 1-.864-.873c-.204-.384-.306-.834-.306-1.35 0-.516.102-.966.306-1.35.21-.384.498-.678.864-.882a2.544 2.544 0 0 1 1.26-.306c.48 0 .897.102 1.251.306.36.204.633.477.819.819.192.342.288.72.288 1.134Zm-.828.054c.018-.366-.042-.672-.18-.918a1.316 1.316 0 0 0-.567-.549c-.24-.12-.501-.18-.783-.18-.45 0-.828.141-1.134.423-.306.276-.471.684-.495 1.224h3.159Z" fill="#00D2AA" fill-opacity=".7"/><path d="M454.506 108.107c.568.176 1.024.344 1.368.504.352.16.648.404.888.732.248.32.372.748.372 1.284 0 .416-.108.804-.324 1.164-.208.352-.524.636-.948.852-.424.216-.944.324-1.56.324h-.024v.96h-.408v-.984c-.792-.064-1.44-.312-1.944-.744a2.4 2.4 0 0 1-.84-1.668h1.464c.032.312.16.596.384.852.232.256.544.416.936.48v-2.724c-.656-.2-1.156-.372-1.5-.516a2.43 2.43 0 0 1-.912-.72c-.264-.328-.396-.768-.396-1.32 0-.448.116-.844.348-1.188.24-.344.572-.612.996-.804.424-.192.912-.288 1.464-.288v-1.02h.408v1.032c.784.056 1.408.288 1.872.696.464.408.732.924.804 1.548h-1.476a1.34 1.34 0 0 0-.384-.744c-.2-.216-.472-.356-.816-.42v2.64l.228.072Zm-1.98-1.572c0 .352.116.632.348.84.232.2.564.376.996.528v-2.544c-.416.008-.744.116-.984.324-.24.2-.36.484-.36.852Zm1.752 5.364c.44 0 .78-.116 1.02-.348.248-.232.372-.528.372-.888 0-.368-.12-.652-.36-.852-.24-.208-.584-.388-1.032-.54v2.628Zm12.696-6.408h-4.188v2.52c.192-.248.464-.444.816-.588.352-.152.74-.228 1.164-.228.592 0 1.084.128 1.476.384.392.248.68.58.864.996.192.416.288.876.288 1.38 0 .888-.248 1.608-.744 2.16-.496.544-1.216.816-2.16.816-.888 0-1.604-.236-2.148-.708s-.84-1.1-.888-1.884h1.344c.072.432.248.772.528 1.02.288.248.652.372 1.092.372.544 0 .952-.164 1.224-.492.272-.328.408-.764.408-1.308 0-.512-.14-.912-.42-1.2-.28-.296-.68-.444-1.2-.444-.368 0-.692.08-.972.24a1.48 1.48 0 0 0-.6.636h-1.332v-4.884h5.448v1.212Zm2.905 5.88v1.512h-1.548v-1.512h1.548Zm3.977-7.224c.56 0 1.04.1 1.44.3.4.192.7.46.9.804.208.344.312.728.312 1.152 0 .536-.152.984-.456 1.344-.296.352-.716.564-1.26.636v.06c.584.168 1.04.42 1.368.756.336.328.504.784.504 1.368 0 .712-.236 1.292-.708 1.74-.472.44-1.148.66-2.028.66-.904 0-1.632-.228-2.184-.684-.552-.464-.868-1.148-.948-2.052h1.356c.048.48.22.864.516 1.152.296.28.696.42 1.2.42.472 0 .832-.124 1.08-.372.256-.248.384-.568.384-.96 0-.472-.184-.832-.552-1.08-.36-.248-.884-.372-1.572-.372h-.324v-1.128h.324c1.304.016 1.956-.428 1.956-1.332 0-.392-.12-.7-.36-.924-.24-.224-.568-.336-.984-.336-.416 0-.764.128-1.044.384-.28.248-.448.612-.504 1.092h-1.344c.056-.832.336-1.476.84-1.932.504-.464 1.2-.696 2.088-.696Zm3.681 1.548v-1.284h2.712v8.472h-1.44v-7.188h-1.272Zm13.136-1.152v8.34h-1.38v-6.252l-2.412 6.252h-1.2l-2.424-6.252v6.252h-1.368v-8.34h1.656l2.76 6.66 2.712-6.66h1.656Z" fill="#00D9F5"/><path d="M451.738 120.204v2.169h2.412v.63h-2.412v2.214h2.682v.666h-3.501v-6.345h3.501v.666h-2.682Zm6.578 5.679-1.287-1.89-1.161 1.89h-.909l1.62-2.547-1.629-2.394h.936l1.251 1.836 1.143-1.836h.909l-1.611 2.484 1.674 2.457h-.936Zm4.427-5.004c.438 0 .828.102 1.17.306.342.204.609.498.801.882.198.384.297.834.297 1.35 0 .516-.099.966-.297 1.35a2.093 2.093 0 0 1-.801.873 2.24 2.24 0 0 1-1.17.306c-.48 0-.888-.12-1.224-.36a1.884 1.884 0 0 1-.684-.963v3.6h-.819v-7.281h.819v1.26c.126-.396.354-.714.684-.954.336-.246.744-.369 1.224-.369Zm-.234.729c-.318 0-.606.075-.864.225a1.492 1.492 0 0 0-.603.63 2.033 2.033 0 0 0-.216.954c0 .36.072.678.216.954.144.27.345.48.603.63.258.15.546.225.864.225.51 0 .915-.159 1.215-.477.306-.324.459-.768.459-1.332 0-.564-.153-1.005-.459-1.323-.3-.324-.705-.486-1.215-.486Zm8.116 1.53c0 .174-.012.324-.036.45h-3.951c.018.564.177.987.477 1.269.306.282.678.423 1.116.423.396 0 .726-.099.99-.297.27-.204.435-.474.495-.81h.873a2.05 2.05 0 0 1-.405.918c-.204.27-.471.48-.801.63-.33.15-.702.225-1.116.225-.474 0-.894-.102-1.26-.306a2.2 2.2 0 0 1-.864-.873c-.204-.384-.306-.834-.306-1.35 0-.516.102-.966.306-1.35.21-.384.498-.678.864-.882a2.544 2.544 0 0 1 1.26-.306c.48 0 .897.102 1.251.306.36.204.633.477.819.819.192.342.288.72.288 1.134Zm-.828.054c.018-.366-.042-.672-.18-.918a1.316 1.316 0 0 0-.567-.549c-.24-.12-.501-.18-.783-.18-.45 0-.828.141-1.134.423-.306.276-.471.684-.495 1.224h3.159Zm4.501-2.331c.576 0 1.041.186 1.395.558.354.366.531.897.531 1.593v2.871h-.819v-2.799c0-.492-.126-.87-.378-1.134-.252-.264-.594-.396-1.026-.396-.45 0-.81.147-1.08.441-.27.288-.405.711-.405 1.269v2.619h-.819v-4.941h.819v1.17a1.69 1.69 0 0 1 .666-.927 1.965 1.965 0 0 1 1.116-.324Zm4.73.018c.558 0 1.005.147 1.341.441.342.288.549.678.621 1.17h-.783a1.107 1.107 0 0 0-.369-.72c-.204-.192-.48-.288-.828-.288-.294 0-.525.072-.693.216-.162.138-.243.327-.243.567 0 .18.054.327.162.441.114.108.252.192.414.252.168.054.396.114.684.18.366.084.66.171.882.261.228.084.42.222.576.414.162.192.243.45.243.774 0 .402-.153.729-.459.981-.3.252-.702.378-1.206.378-.588 0-1.068-.141-1.44-.423-.372-.282-.591-.675-.657-1.179h.792c.03.3.159.543.387.729.234.186.54.279.918.279.282 0 .501-.072.657-.216a.722.722 0 0 0 .243-.567.62.62 0 0 0-.171-.459 1.121 1.121 0 0 0-.423-.261 6.187 6.187 0 0 0-.693-.189 7.007 7.007 0 0 1-.882-.252 1.402 1.402 0 0 1-.558-.396c-.15-.186-.225-.435-.225-.747 0-.414.153-.747.459-.999.306-.258.723-.387 1.251-.387Zm7.646 2.259c0 .174-.012.324-.036.45h-3.951c.018.564.177.987.477 1.269.306.282.678.423 1.116.423.396 0 .726-.099.99-.297.27-.204.435-.474.495-.81h.873a2.05 2.05 0 0 1-.405.918c-.204.27-.471.48-.801.63-.33.15-.702.225-1.116.225-.474 0-.894-.102-1.26-.306a2.2 2.2 0 0 1-.864-.873c-.204-.384-.306-.834-.306-1.35 0-.516.102-.966.306-1.35.21-.384.498-.678.864-.882a2.544 2.544 0 0 1 1.26-.306c.48 0 .897.102 1.251.306.36.204.633.477.819.819.192.342.288.72.288 1.134Zm-.828.054c.018-.366-.042-.672-.18-.918a1.316 1.316 0 0 0-.567-.549c-.24-.12-.501-.18-.783-.18-.45 0-.828.141-1.134.423-.306.276-.471.684-.495 1.224h3.159Zm3.447-2.313c.558 0 1.005.147 1.341.441.342.288.549.678.621 1.17h-.783a1.107 1.107 0 0 0-.369-.72c-.204-.192-.48-.288-.828-.288-.294 0-.525.072-.693.216-.162.138-.243.327-.243.567 0 .18.054.327.162.441.114.108.252.192.414.252.168.054.396.114.684.18.366.084.66.171.882.261.228.084.42.222.576.414.162.192.243.45.243.774 0 .402-.153.729-.459.981-.3.252-.702.378-1.206.378-.588 0-1.068-.141-1.44-.423-.372-.282-.591-.675-.657-1.179h.792c.03.3.159.543.387.729.234.186.54.279.918.279.282 0 .501-.072.657-.216a.722.722 0 0 0 .243-.567.62.62 0 0 0-.171-.459 1.121 1.121 0 0 0-.423-.261 6.187 6.187 0 0 0-.693-.189 7.007 7.007 0 0 1-.882-.252 1.402 1.402 0 0 1-.558-.396c-.15-.186-.225-.435-.225-.747 0-.414.153-.747.459-.999.306-.258.723-.387 1.251-.387Z" fill="#00D9F5" fill-opacity=".7"/><path d="M283.32 63.427c1.056 0 2.011.245 2.864.736a5.255 5.255 0 0 1 2.032 2.064c.501.874.752 1.866.752 2.976 0 1.109-.251 2.106-.752 2.992a5.254 5.254 0 0 1-2.032 2.064c-.853.49-1.808.736-2.864.736-1.056 0-2.016-.246-2.88-.736a5.397 5.397 0 0 1-2.032-2.064c-.491-.886-.736-1.883-.736-2.992 0-1.11.245-2.102.736-2.976a5.398 5.398 0 0 1 2.032-2.064c.864-.491 1.824-.736 2.88-.736Zm0 2.08c-.661 0-1.243.149-1.744.448-.501.298-.896.73-1.184 1.296-.277.554-.416 1.205-.416 1.952 0 .746.139 1.402.416 1.968a3.13 3.13 0 0 0 1.184 1.28c.501.298 1.083.448 1.744.448s1.243-.15 1.744-.448a3.023 3.023 0 0 0 1.168-1.28c.288-.566.432-1.222.432-1.968 0-.747-.144-1.398-.432-1.952a3.005 3.005 0 0 0-1.168-1.296c-.501-.299-1.083-.448-1.744-.448Zm12.625.384c1.024 0 1.84.336 2.448 1.008.608.672.912 1.616.912 2.832v5.152h-2.24v-4.896c0-.704-.182-1.248-.544-1.632-.363-.395-.859-.592-1.488-.592-.64 0-1.152.208-1.536.624-.384.416-.576 1.013-.576 1.792v4.704h-2.256v-8.864h2.256v1.776a2.788 2.788 0 0 1 1.152-1.392c.544-.342 1.168-.512 1.872-.512Zm7.601-2.848v11.84h-2.256v-11.84h2.256Zm1.785.432c0-.363.128-.656.384-.88.256-.235.592-.352 1.008-.352.416 0 .752.117 1.008.352.256.224.384.517.384.88 0 .352-.128.645-.384.88-.256.224-.592.336-1.008.336-.416 0-.752-.112-1.008-.336a1.144 1.144 0 0 1-.384-.88Zm2.512 2.544v8.864h-2.256v-8.864h2.256Zm7.32-.128c1.024 0 1.84.336 2.448 1.008.608.672.912 1.616.912 2.832v5.152h-2.24v-4.896c0-.704-.181-1.248-.544-1.632-.362-.395-.858-.592-1.488-.592-.64 0-1.152.208-1.536.624-.384.416-.576 1.013-.576 1.792v4.704h-2.256v-8.864h2.256v1.776a2.798 2.798 0 0 1 1.152-1.392c.544-.342 1.168-.512 1.872-.512Zm13.681 4.224c0 .224-.026.48-.08.768h-6.496c.032.789.246 1.37.64 1.744.395.373.886.56 1.472.56.523 0 .955-.128 1.296-.384.352-.256.576-.603.672-1.04h2.384a3.81 3.81 0 0 1-.752 1.664c-.384.49-.88.874-1.488 1.152-.597.277-1.264.416-2 .416-.864 0-1.632-.182-2.304-.544a3.936 3.936 0 0 1-1.568-1.584c-.373-.683-.56-1.488-.56-2.416 0-.928.187-1.734.56-2.416a3.81 3.81 0 0 1 1.568-1.584c.672-.363 1.44-.544 2.304-.544.875 0 1.638.181 2.288.544a3.749 3.749 0 0 1 1.52 1.504c.363.629.544 1.349.544 2.16Zm-2.272-.224c.032-.726-.16-1.275-.576-1.648-.405-.374-.906-.56-1.504-.56-.608 0-1.12.186-1.536.56-.416.373-.645.922-.688 1.648h4.304Zm14.238 2.72h-4.528l-.8 2.272h-2.384l4.16-11.168h2.576l4.144 11.168h-2.384l-.784-2.272Zm-.608-1.712-1.664-4.768-1.664 4.768h3.328Zm10.274-5.008c1.024 0 1.84.336 2.448 1.008.608.672.912 1.616.912 2.832v5.152h-2.24v-4.896c0-.704-.181-1.248-.544-1.632-.363-.395-.859-.592-1.488-.592-.64 0-1.152.208-1.536.624-.384.416-.576 1.013-.576 1.792v4.704h-2.256v-8.864h2.256v1.776a2.798 2.798 0 0 1 1.152-1.392c.544-.342 1.168-.512 1.872-.512Zm8.817.016c.747 0 1.387.176 1.92.528.533.352.912.826 1.136 1.424v-1.84h2.24v8.864h-2.24v-1.856a2.963 2.963 0 0 1-1.136 1.44c-.533.352-1.173.528-1.92.528a3.806 3.806 0 0 1-2.016-.544c-.597-.363-1.067-.886-1.408-1.568-.331-.694-.496-1.504-.496-2.432 0-.928.165-1.734.496-2.416.341-.694.811-1.222 1.408-1.584a3.807 3.807 0 0 1 2.016-.544Zm.704 1.968c-.704 0-1.269.229-1.696.688-.427.458-.64 1.088-.64 1.888 0 .8.213 1.429.64 1.888.427.448.992.672 1.696.672.683 0 1.243-.23 1.68-.688.448-.47.672-1.094.672-1.872 0-.79-.224-1.414-.672-1.872-.437-.47-.997-.704-1.68-.704Zm8.892-4.832v11.84h-2.256v-11.84h2.256Zm3.561 2.976 2.416 6.016 2.24-6.016h2.48l-5.424 13.088h-2.496l2-4.48-3.728-8.608h2.512Zm11.255-.112c1.077 0 1.941.272 2.592.816.651.544 1.056 1.269 1.216 2.176h-2.112c-.085-.427-.277-.768-.576-1.024-.299-.256-.688-.384-1.168-.384-.384 0-.683.09-.896.272-.213.181-.32.426-.32.736 0 .245.085.442.256.592.171.149.384.266.64.352a14.9 14.9 0 0 0 1.104.304c.672.149 1.216.309 1.632.48.427.16.789.421 1.088.784.309.352.464.832.464 1.44 0 .757-.299 1.37-.896 1.84-.587.469-1.381.704-2.384.704-1.152 0-2.075-.256-2.768-.768-.693-.523-1.115-1.264-1.264-2.224h2.16c.053.437.245.784.576 1.04.331.245.763.368 1.296.368.384 0 .677-.091.88-.272a.968.968 0 0 0 .304-.736.794.794 0 0 0-.272-.624 1.7 1.7 0 0 0-.656-.368 15 15 0 0 0-1.104-.304c-.661-.15-1.2-.299-1.616-.448a2.716 2.716 0 0 1-1.056-.752c-.288-.342-.432-.811-.432-1.408 0-.768.293-1.392.88-1.872.587-.48 1.397-.72 2.432-.72Zm5.344-2.432c0-.363.128-.656.384-.88.256-.235.592-.352 1.008-.352.416 0 .752.117 1.008.352.256.224.384.517.384.88 0 .352-.128.645-.384.88-.256.224-.592.336-1.008.336-.416 0-.752-.112-1.008-.336a1.144 1.144 0 0 1-.384-.88Zm2.512 2.544v8.864h-2.256v-8.864h2.256Zm5.097-.112c1.077 0 1.941.272 2.592.816.651.544 1.056 1.269 1.216 2.176h-2.112c-.085-.427-.277-.768-.576-1.024-.299-.256-.688-.384-1.168-.384-.384 0-.683.09-.896.272-.213.181-.32.426-.32.736 0 .245.085.442.256.592.171.149.384.266.64.352a14.9 14.9 0 0 0 1.104.304c.672.149 1.216.309 1.632.48.427.16.789.421 1.088.784.309.352.464.832.464 1.44 0 .757-.299 1.37-.896 1.84-.587.469-1.381.704-2.384.704-1.152 0-2.075-.256-2.768-.768-.693-.523-1.115-1.264-1.264-2.224h2.16c.053.437.245.784.576 1.04.331.245.763.368 1.296.368.384 0 .677-.091.88-.272a.968.968 0 0 0 .304-.736.794.794 0 0 0-.272-.624 1.7 1.7 0 0 0-.656-.368 15 15 0 0 0-1.104-.304c-.661-.15-1.2-.299-1.616-.448a2.716 2.716 0 0 1-1.056-.752c-.288-.342-.432-.811-.432-1.408 0-.768.293-1.392.88-1.872.587-.48 1.397-.72 2.432-.72ZM440.13 67.683v-.85h2.02v7.05h-.96v-6.2h-1.06Zm13.002-.73v6.93h-.91v-5.53l-2.21 5.53h-.81l-2.22-5.51v5.51h-.91v-6.93h1.09l2.46 5.82 2.42-5.82h1.09Zm3.945 1.37c.527 0 .997.113 1.41.34.42.226.747.553.98.98.24.426.36.926.36 1.5 0 .573-.12 1.073-.36 1.5-.233.42-.56.743-.98.97-.413.226-.883.34-1.41.34-.526 0-1-.114-1.42-.34a2.494 2.494 0 0 1-.98-.97c-.24-.427-.36-.927-.36-1.5 0-.574.12-1.074.36-1.5.24-.427.567-.754.98-.98.42-.227.894-.34 1.42-.34Zm0 .8c-.326 0-.63.073-.91.22a1.695 1.695 0 0 0-.67.68c-.166.3-.25.673-.25 1.12 0 .44.084.813.25 1.12.174.3.397.523.67.67.28.146.584.22.91.22.327 0 .627-.074.9-.22.28-.147.504-.37.67-.67.174-.307.26-.68.26-1.12 0-.447-.086-.82-.26-1.12a1.606 1.606 0 0 0-.67-.68 1.872 1.872 0 0 0-.9-.22Zm6.826-.82c.64 0 1.157.206 1.55.62.394.406.59.996.59 1.77v3.19h-.91v-3.11c0-.547-.14-.967-.42-1.26-.28-.294-.66-.44-1.14-.44-.5 0-.9.163-1.2.49-.3.32-.45.79-.45 1.41v2.91h-.91v-5.49h.91v1.3c.14-.447.387-.79.74-1.03.36-.24.774-.36 1.24-.36Zm6.156 4.78v.8h-.68c-.56 0-.98-.134-1.26-.4-.273-.267-.41-.714-.41-1.34v-2.96h-.82v-.79h.82v-1.37h.92v1.37h1.42v.79h-1.42v2.98c0 .353.063.596.19.73.133.126.36.19.68.19h.56Zm4-4.78c.64 0 1.157.206 1.55.62.394.406.59.996.59 1.77v3.19h-.91v-3.11c0-.547-.14-.967-.42-1.26-.28-.294-.66-.44-1.14-.44-.5 0-.9.163-1.2.49-.3.32-.45.79-.45 1.41v2.91h-.91v-7.4h.91v3.21c.14-.447.387-.79.74-1.03.36-.24.774-.36 1.24-.36Z" fill="#fff"/><g clip-path="url(#q)"><path d="M483.083 69.716 486 72.633l2.917-2.917h-5.834Z" fill="#fff"/></g><defs><linearGradient id="a" x1="450.564" y1="490.104" x2="57.013" y2="282.496" gradientUnits="userSpaceOnUse"><stop offset=".009" stop-color="#DEF9FA"/><stop offset=".172" stop-color="#BEF3F5"/><stop offset=".42" stop-color="#9DEDF0"/><stop offset=".551" stop-color="#7DE7EB"/><stop offset=".715" stop-color="#5CE1E6"/><stop offset="1" stop-color="#33BBCF"/></linearGradient><linearGradient id="b" x1="351.482" y1="338.366" x2="157.838" y2="236.214" gradientUnits="userSpaceOnUse"><stop offset=".009" stop-color="#DEF9FA"/><stop offset=".172" stop-color="#BEF3F5"/><stop offset=".42" stop-color="#9DEDF0"/><stop offset=".551" stop-color="#7DE7EB"/><stop offset=".715" stop-color="#5CE1E6"/><stop offset="1" stop-color="#33BBCF"/></linearGradient><linearGradient id="c" x1="319.568" y1="-341.422" x2="572.315" y2="278.31" gradientUnits="userSpaceOnUse"><stop offset=".009" stop-color="#DEF9FA"/><stop offset=".172" stop-color="#BEF3F5"/><stop offset=".42" stop-color="#9DEDF0"/><stop offset=".551" stop-color="#7DE7EB"/><stop offset=".715" stop-color="#5CE1E6"/><stop offset="1" stop-color="#33BBCF"/></linearGradient><linearGradient id="e" x1="-708" y1="-368" x2="184.238" y2="293.125" gradientUnits="userSpaceOnUse"><stop offset=".161" stop-color="#fff"/><stop offset=".578" stop-color="#6D6D6D"/><stop offset=".932" stop-color="#11101D"/></linearGradient><linearGradient id="g" x1="-380.5" y1="-186.617" x2="-20.712" y2="624.869" gradientUnits="userSpaceOnUse"><stop stop-color="#fff"/><stop offset=".906" stop-color="#14101D"/></linearGradient><linearGradient id="h" x1="121" y1="395.883" x2="169" y2="395.883" gradientUnits="userSpaceOnUse"><stop stop-color="#00F5A0"/><stop offset="1" stop-color="#00D9F5"/></linearGradient><linearGradient id="i" x1="179" y1="395.883" x2="227" y2="395.883" gradientUnits="userSpaceOnUse"><stop stop-color="#00F5A0"/><stop offset="1" stop-color="#00D9F5"/></linearGradient><linearGradient id="j" x1="237" y1="395.883" x2="285" y2="395.883" gradientUnits="userSpaceOnUse"><stop stop-color="#00F5A0"/><stop offset="1" stop-color="#00D9F5"/></linearGradient><linearGradient id="k" x1="295" y1="395.883" x2="343" y2="395.883" gradientUnits="userSpaceOnUse"><stop stop-color="#00F5A0"/><stop offset="1" stop-color="#00D9F5"/></linearGradient><linearGradient id="m" x1="-209.326" y1="-699.909" x2="551.859" y2="178.669" gradientUnits="userSpaceOnUse"><stop stop-color="#fff"/><stop offset=".939" stop-color="#14101D"/></linearGradient><linearGradient id="n" x1="342" y1="246.383" x2="370" y2="246.383" gradientUnits="userSpaceOnUse"><stop stop-color="#00F5A0"/><stop offset="1" stop-color="#00D9F5"/></linearGradient><linearGradient id="o" x1="277" y1="180.383" x2="492" y2="180.383" gradientUnits="userSpaceOnUse"><stop stop-color="#00F5A0"/><stop offset="1" stop-color="#00D9F5"/></linearGradient><linearGradient id="p" x1="353" y1="194.883" x2="461" y2="194.883" gradientUnits="userSpaceOnUse"><stop stop-color="#00F5A0"/><stop offset="1" stop-color="#00D9F5"/></linearGradient><clipPath id="l"><path fill="#fff" transform="translate(191 383.883)" d="M0 0h24v24H0z"/></clipPath><clipPath id="q"><path fill="#fff" transform="translate(479 63.883)" d="M0 0h14v14H0z"/></clipPath><filter id="d" x="-10" y="69" width="211" height="178" filterUnits="userSpaceOnUse" color-interpolation-filters="sRGB"><feFlood flood-opacity="0" result="BackgroundImageFix"/><feGaussianBlur in="BackgroundImage" stdDeviation="5"/><feComposite in2="SourceAlpha" operator="in" result="effect1_backgroundBlur_30003_118"/><feBlend in="SourceGraphic" in2="effect1_backgroundBlur_30003_118" result="shape"/></filter><filter id="f" x="91" y="299.883" width="282" height="160" filterUnits="userSpaceOnUse" color-interpolation-filters="sRGB"><feFlood flood-opacity="0" result="BackgroundImageFix"/><feGaussianBlur in="BackgroundImage" stdDeviation="5"/><feComposite in2="SourceAlpha" operator="in" result="effect1_backgroundBlur_30003_118"/><feBlend in="SourceGraphic" in2="effect1_backgroundBlur_30003_118" result="shape"/></filter></defs></svg>